<?xml version="1.0"?>
<svg width="1000" height="793" xmlns="http://www.w3.org/2000/svg" xmlns:svg="http://www.w3.org/2000/svg" stroke-linejoin="round" stroke-width=".5" version="1.2">
 <g class="layer">
  <title>Layer 1</title>
  <g id="features">
   <path d="m79.1,496.5l5.1,-0.7l11,0.3l11.8,0l10.2,0.6l4.9,-2.9l4.1,-5.3l2.2,-2.6l1.1,-1.2l1.2,1.5l0.9,1l0.3,0.3l3.1,6.7l3.7,7.2l4.1,7.3l3.5,7.6l1.4,11.6l0,6.3l0,4.8l2.2,3.8l2.4,3.1l2.1,2.9l2.6,4.4l0.5,4.1l-1.2,10.4l-2.6,8.5l-3.4,4.4l-2.1,2.5l-1.1,3.5l0,3.1l0.6,3.5l1.2,1.6l1.9,1.8l0,1.9l-0.7,2.5l-0.2,2.9l0.8,2.1l-1.2,2.1l-29.7,42.8l-3.9,-2.9l-3.1,-0.5l-0.9,-0.1l-4.5,0.2l-4.8,-0.5l-2.8,-1.3l-7.3,-3.4l-2.5,-6.4l0.2,-8.4l-1.7,-10.6l-5.7,-10.9l-13.1,-18.6l29.2,-5.2l9.1,-4.2l2.1,-4.1l-1.5,-3.4l-8.6,-2.3l-10.6,-1.3l-25.8,1.6l-4.3,-18.5l-1.9,-14.2l0.1,-1l1.2,-9.2l5.1,1.6l5.1,-3.1l4.6,-5.9l3.4,-6.4l2.5,-7.9l0.1,-6.4l-0.4,-1.1z" fill="#b51b1b" id="MK312" stroke="#ffff7c"/>
   <path d="m79.1,496.5l-1.8,-4.7l-4.2,-6l-2.7,-1.8l-5.9,-1l-2.5,-2.1l-0.7,-2.6l-0.7,-7.7l-1.2,-3.6l-0.7,-1.3l5.4,-4.8l5.2,-6.1l8.2,-4l7.7,-4.9l4.1,-7l8.5,0l6.3,1l4.1,6l2.2,8.9l3.7,3.4l4.1,0l2.6,8.4l0,7.4l0,6.4l5.5,1l2.1,4.5l-2.2,2.6l-4.1,5.3l-4.9,2.9l-10.2,-0.6l-11.8,0l-11,-0.3l-5.1,0.7z" fill="#b51b1b" id="MK313" stroke="#ffff7c"/>
   <path d="m58.7,465.7l-3.8,-7.4l-2.7,-2.8l-4,-1.8l-2.5,-7.1l1.1,-12.7l-1.3,-6.8l17.2,-3.8l5.2,-2.1l4.7,-2.9l3,-3.1l1.9,-4.9l0,-1l6.7,2.9l7,7.9l8.8,6.5l11.9,2.4l4.1,0l7.4,6.5l4,6.4l4.9,5.4l7.7,3l4.8,2.5l1.1,5.4l0.5,2.5l-1.7,-0.7l-1.7,-0.9l-2.8,0.6l-2.4,3.2l-1.4,4.1l-0.7,5l-1.2,5.7l-1,3.2l-2.8,5.3l-1.2,-1.5l-1.1,1.2l-2.1,-4.5l-5.5,-1l0,-6.4l0,-7.4l-2.6,-8.4l-4.1,0l-3.7,-3.4l-2.2,-8.9l-4.1,-6l-6.3,-1l-8.5,0l-4.1,7l-7.7,4.9l-8.2,4l-5.2,6.1l-5.4,4.8z" fill="#b51b1b" id="MK303" stroke="#ffff7c"/>
   <path d="m77.5,409.3l0,-3.2l-7.5,-22l-1.8,-10.1l-2.8,-34.3l1,-5l2.9,-6.3l3.4,-4.7l8.3,-8.1l2.3,-4.1l-0.3,-3.2l10.5,4.6l7.3,2.8l3.6,4.2l8,3.8l5.5,4.8l7.3,1.3l7.4,0.6l4,-3.2l3.3,-4.4l3.3,-4.1l7.4,0l6.6,0.9l6.9,1.3l5.4,0.3l2.2,2.5l4.5,8l0.7,9.2l3.3,3.8l4.3,-2.5l4.2,0l5.7,0l3.6,0.3l0,2.5l-3.1,2.9l-1.9,2.2l2.6,5.1l4.5,7.3l5.2,6l0.8,4.2l-5.7,0.6l-1.8,1.5l-4.8,0l-3.3,0l-4,2.6l-6.2,7.3l-2.8,2.2l-8.1,0.3l-3.8,4.8l0.3,3.1l2.8,2.2l4.8,-1.2l1.4,0.2l0.6,3l2.3,12.9l0,8.9l0,5l0,5.9l-4.5,5l-0.4,4.4l0,5.9l-4.4,2.5l-4.2,8l-3.8,3.8l-4.5,1.6l-5.7,-1l-3.9,-1.5l-0.5,-2.5l-1.1,-5.4l-4.8,-2.5l-7.7,-3l-4.9,-5.4l-4,-6.4l-7.4,-6.5l-4.1,0l-11.9,-2.4l-8.8,-6.5l-7,-7.9l-6.7,-2.9z" fill="#b51b1b" id="MK607" stroke="#ffff7c"/>
   <path d="m83,308.3l-0.6,-6.7l-2.8,-12l0.1,-2.6l0.3,-7.9l9,-5.5l8.2,8.7l4.3,2.4l5.8,-0.4l2.7,-2.2l2.3,-4.4l2,-1.8l3.8,-1.3l1.3,0.8l6.7,9.5l3.4,2.5l7.7,-2.6l3.7,-4.2l0.2,-0.3l0.1,-0.1l4.5,4.6l7.4,3.2l1.5,0.8l4.5,0.3l5,0l4.7,0.6l2.4,2.9l2.1,6l2.2,3.2l6.1,3.5l6.4,1l4.3,-3.9l9,-1.2l11.3,2.8l6.7,-2.2l3.6,-4.1l-0.8,-3.2l-0.9,-4.4l1.7,-2.6l1.4,-1.6l2.5,-1.1l2.7,1.1l7.6,4.5l7.6,0.9l5.4,-0.3l2.1,0l1,3.8l-0.5,3.5l2.8,3.5l6.4,5.1l3.8,5.1l3.1,4.1l1.6,3.1l-1.9,0.4l-7.4,0.6l-1.9,4.5l0,7l0,4.7l-0.9,1.9l-2.9,0l-1.9,1.6l-0.5,2.6l1.7,4.7l3.3,2.6l0.5,4.1l0,3.8l1,2.5l1.6,2.3l1.2,3.1l0.7,8.3l-1.8,6.8l-0.1,-0.2l-2.1,0l-3.1,2.6l-3.8,0.6l-4.5,1.6l-5,0.6l-3.3,2.6l-1.9,1.2l-0.3,2l-3.2,-2.9l-2.6,-3.2l-3.3,-4.4l-5.3,-3.8l-5.4,-2.9l-7.4,-2.2l-3.8,0.4l-0.8,-4.2l-5.2,-6l-4.5,-7.3l-2.6,-5.1l1.9,-2.2l3.1,-2.9l0,-2.5l-3.6,-0.3l-5.7,0l-4.2,0l-4.3,2.5l-3.3,-3.8l-0.7,-9.2l-4.5,-8l-2.2,-2.5l-5.4,-0.3l-6.9,-1.3l-6.6,-0.9l-7.4,0l-3.3,4.1l-3.3,4.4l-4,3.2l-7.4,-0.6l-7.3,-1.3l-5.5,-4.8l-8,-3.8l-3.6,-4.2l-7.3,-2.8l-10.5,-4.6z" fill="#b51b1b" id="MK604" stroke="#ffff7c"/>
   <path d="m69.7,587.5l-4.4,-12l-1.7,-6.9l25.8,-1.6l10.6,1.3l8.6,2.3l1.5,3.4l-2.1,4.1l-9.1,4.2l-29.2,5.2z" fill="#b51b1b" id="MK301" stroke="#ffff7c"/>
   <path d="m184.5,722l-6.9,1.7l-11.8,10l-6.3,2.5l-8.9,-2l-3.7,-3.1l-4.7,-4.1l-5.1,-10.8l-6.9,-27l-6.8,-30.7l32.1,-45.5l6.2,-7.5l2.2,-4.8l4,-1.5l2.1,-1l0,-3.8l-0.5,-5.6l1.5,-3.2l2.8,-5.3l4.5,-2.9l0.7,-3.7l2.4,-2.3l3.6,-0.6l8.9,0.3l6,-2.5l3.8,-0.3l5.9,0.3l4.5,1.3l8.3,3.1l9.2,6.3l6.9,1.3l9.9,1.2l5.2,-1.3l2.3,3.9l0.5,2.3l-3.2,6l-4.4,4.9l-7.5,5.7l-7.3,4l-6,3.7l-8.2,4.9l-4.1,4l-3.7,4.8l-3.4,4.3l-2.6,7.4l-1.7,10l-0.2,6.3l0,4.9l-0.5,3.7l-3,1.4l-1.7,1.7l0,2.6l0.2,4.3l1.9,2.3l2,4.5l0,4.3l-0.6,5.1l-2.9,3.2l-3.6,0.3l-5.4,0.5l-4.1,3.2l-1.7,5.4l-1.3,6.3l0,5.4l0,4.3l0.5,2.8l0.6,3l0,0.1z" fill="#b51b1b" id="MK310" stroke="#ffff7c"/>
   <path d="m123.4,658.5l-3.6,-7.6l29.7,-42.8l1.2,-2.1l-0.8,-2.1l0.2,-2.9l0.7,-2.5l0,-1.9l-1.9,-1.8l-1.2,-1.6l-0.6,-3.5l0,-3.1l1.1,-3.5l2.1,-2.5l3.4,-4.4l2.6,-8.5l1.2,-10.4l-0.5,-4.1l-2.6,-4.4l-2.1,-2.9l-2.4,-3.1l-2.2,-3.8l0,-4.8l0,-6.3l-1.4,-11.6l-3.5,-7.6l-4.1,-7.3l-3.7,-7.2l-3.1,-6.7l-0.3,-0.3l3.1,-2.8l11.4,0.6l15.9,-0.3l9,-0.3l10.8,0.9l7.6,1.9l11.9,0.3l1.6,0l2.4,6.7l3.8,7.8l1.2,6.1l-0.7,5.3l2.6,5.4l6.6,2.2l2.9,3.2l3,6.6l2,2.9l-0.5,0.9l0,4.8l0.9,3.8l2.6,2.8l3.4,2.9l3.5,1.7l3.4,2l1.5,4.3l1.9,5.2l2.4,3.1l4.1,2.3l0,5.5l2.6,5.7l1.1,1.8l-5.2,1.3l-9.9,-1.2l-6.9,-1.3l-9.2,-6.3l-8.3,-3.1l-4.5,-1.3l-5.9,-0.3l-3.8,0.3l-6,2.5l-8.9,-0.3l-3.6,0.6l-2.4,2.3l-0.7,3.7l-4.5,2.9l-2.8,5.3l-1.5,3.2l0.5,5.6l0,3.8l-2.1,1l-4,1.5l-2.2,4.8l-6.2,7.5l-32.1,45.5z" fill="#b51b1b" id="MK304" stroke="#ffff7c"/>
   <path d="m184.5,722l0,-0.1l-0.6,-3l-0.5,-2.8l0,-4.3l0,-5.4l1.3,-6.3l1.7,-5.4l4.1,-3.2l5.4,-0.5l3.6,-0.3l2.9,-3.2l0.6,-5.1l0,-4.3l-2,-4.5l-1.9,-2.3l-0.2,-4.3l0,-2.6l1.7,-1.7l3,-1.4l0.5,-3.7l0,-4.9l0.2,-6.3l1.7,-10l2.6,-7.4l3.4,-4.3l3.7,-4.8l4.1,-4l8.2,-4.9l6,-3.7l7.3,-4l7.5,-5.7l4.4,-4.9l3.2,-6l0.4,-0.9l1.1,4l2.4,2.9l3.2,0l3.4,0.3l1.5,3.7l1.7,9.7l0,6l2,7.5l3.6,5.7l1.1,1.6l-0.1,0l0,2.5l3.2,3.6l0.8,4.3l-0.8,5.3l-3.5,6.1l-3.5,3.2l-3,2.2l-1.3,4.6l0,5.4l2.4,2.8l6.2,1.1l1.6,1.3l0,4.2l0.8,4l1.8,3.5l3,3.1l2.3,2.9l0.9,2.8l0,3.7l2.6,2.3l3.8,0l6.1,-0.3l4.9,0l4.8,2.6l3.8,5.4l1.6,3.1l0,3.7l3.6,1.2l3.6,0l5,0.3l1.9,1.4l1.6,6l-0.5,6l3.7,2.2l0.8,2.3l-0.4,3.1l-1.3,2.9l-0.8,5.1l-1.3,5.4l-0.5,0.7l-1,3.2l-0.1,0.1l-13,-2.8l-9.2,-0.5l-25.1,7.6l-52.1,2.1l-0.1,-12.4l-2.9,-8.8l-6,-5.8l-17.6,-5.2l-18.7,-2.8l-0.3,0.1z" fill="#b51b1b" id="MK509" stroke="#ffff7c"/>
   <path d="m879.1,527.7l0,-0.1l-0.4,-0.8l-0.6,-0.9l0,-2.5l-0.3,-8.9l0.3,-7.2l-0.3,-4.9l-1.4,-1.2l-1,-1.1l0,-0.9l0,-0.2l0.3,-1.1l1.7,-1.4l1.4,-0.9l1.3,-1.3l0.7,-2.5l0.2,-3.1l0,-5.4l0,-4.3l-0.2,-4l1.7,-2.3l3,-2.2l1.9,-1.4l3.9,-3.4l3,-3.8l1.8,-3.1l2,-2.7l2.2,-1.8l1,-3.8l-0.1,-5.7l-0.3,-2.2l2.3,0l9.1,0l12.5,-0.9l3,-1.3l3.2,-0.7l0.2,0l0.9,33.1l0.5,2.3l2,4.8l0.5,2.7l-0.9,2.2l-4.1,5.1l-1.2,2.9l0.8,10.1l1.8,9.9l-1.3,8.8l-8.5,6.7l-32.2,-2.5l-10.4,1.9z" fill="#b51b1b" id="MK408" stroke="#ffff7c"/>
   <path d="m859.7,551.2l-0.4,1.7l-1.4,37.3l-3.4,18.2l-4.1,9.5l-3.8,2.8l-4.6,-2.3l-6.3,-5.7l-2.8,-3.7l-1.6,-3.7l-1.6,-2.2l2.2,-3.7l-0.4,-0.1l0.1,-2.5l0.1,-3.5l-0.2,-3.9l-0.8,-1.2l-1.7,0l-3.4,-2.4l-2.6,-1.9l-2.6,-1l-2.8,-0.2l-2.1,0l-1.3,0.8l-1.6,0.5l-1.8,0l-2.7,0l-2,-0.4l-1.9,-3.1l-1.5,-1.8l-2.5,-1.2l-2,-2.2l-0.7,-2.6l0.7,0.1l2.7,-1.1l3.1,-2l3,-4.3l2.7,-4.1l1.6,-2.4l7.4,0.3l5.4,-0.1l2,-1.1l1,-2.7l0,-2.8l1.9,-3.1l2.5,-1.5l3.5,0.3l4.3,1.2l1.9,0l2.6,-0.5l2.5,-0.1l3.2,0l2.7,0.6l2.7,0.2l4.1,1.4l0.5,0.2l0.2,0z" fill="#b51b1b" id="MK406" stroke="#ffff7c"/>
   <path d="m866.9,534.5l-3.9,3.5l-3.3,13.2l-0.2,0l-0.5,-0.2l-4.1,-1.4l-2.7,-0.2l-2.7,-0.6l-3.2,0l-2.5,0.1l-2.6,0.5l-1.9,0l-4.3,-1.2l-3.5,-0.3l-2.5,1.5l-1.9,3.1l0,2.8l-1,2.7l-2,1.1l-5.4,0.1l-7.4,-0.3l-1.6,2.4l-2.7,4.1l-3,4.3l-3.1,2l-2.7,1.1l-0.7,-0.1l-1.7,-0.1l-3.4,-2.2l-0.6,-1.6l-0.9,-1.5l-6.2,0.2l-1.6,2.7l-0.1,3.1l-0.6,5.6l-0.3,2.6l-2.3,1.7l-2.2,1.6l-1.6,1.3l-0.4,0l-0.8,0l-1.8,-2.9l-1.6,-2.9l0,-2.2l-1.2,-1.9l-2.8,-1l-0.2,-3.8l0.2,-4.8l-2.2,-6.9l-1.9,-4.1l0.2,-9.3l0,-4.2l-0.8,-3.3l-1.3,-0.7l-2.6,0l-3.7,-1.5l-2.5,-2.4l-3.2,-5l-5.7,-6.6l-2.8,-4.6l-2.3,-1.9l-3.8,-0.5l-4.5,-2.2l-3.4,-3.8l-2.8,-0.5l-3.1,-0.2l-4.7,-0.3l-0.3,-0.3l-1.7,-2l-1.9,-5.7l-0.6,-3.7l0.2,-4.7l0.6,-3.2l1.1,-2.7l0.5,0.8l1.6,0l0.4,-2.3l1.4,-2.4l8.6,-3.4l6.5,-1.6l9.1,-2.2l6.4,-0.2l4.8,0.6l1.8,0.6l-0.2,1.2l2.4,2.7l3,4.3l3.7,4l3.4,3.2l4.4,2l4.2,0l2.7,-0.2l3.4,0.4l1.8,1.6l1.7,2.7l0,2.2l-1.4,3.2l-2.6,3.3l-1.4,3.6l0,2.1l1.9,3.6l3,4.7l1.5,3.3l0.4,4.7l0.1,2.3l2.5,0.2l4.6,0l3.5,-0.2l2.6,-0.9l1.5,-0.7l2.3,0.2l2.7,2.3l3.7,3.8l0,3.1l2.7,0.9l4,0l3.3,0l2.3,-0.9l1.4,-2.2l1.8,-1.1l2.4,0.2l1.2,1.8l1.8,0l1,-0.9l2.4,-2.9l2,-5l1.9,-4.2l2.5,-1.6l2.3,-0.7l4.3,1.1l5.9,3.2l6.8,3.6l5.6,3.3l1.1,1z" fill="#b51b1b" id="MK403" stroke="#ffff7c"/>
   <path d="m879.1,527.7l-5.6,1l-6.6,5.8l-1.1,-1l-5.6,-3.3l-6.8,-3.6l-5.9,-3.2l-4.3,-1.1l-2.3,0.7l-2.5,1.6l-1.9,4.2l-2,5l-2.4,2.9l-1,0.9l-1.8,0l-1.2,-1.8l-2.4,-0.2l-1.8,1.1l-1.4,2.2l-2.3,0.9l-3.3,0l-4,0l-2.7,-0.9l0,-3.1l-3.7,-3.8l-2.7,-2.3l-2.3,-0.2l-1.5,0.7l-2.6,0.9l-3.5,0.2l-4.6,0l-2.5,-0.2l-0.1,-2.3l-0.4,-4.7l-1.5,-3.3l-3,-4.7l-1.9,-3.6l0,-2.1l1.4,-3.6l2.6,-3.3l1.4,-3.2l0,-2.2l-1.7,-2.7l-1.8,-1.6l-3.4,-0.4l-2.7,0.2l-4.2,0l-4.4,-2l-3.4,-3.2l-3.7,-4l-3,-4.3l-2.4,-2.7l0.2,-1.2l0,-0.8l2.4,-2.5l5,-2.4l4.2,-1.4l2.6,0l1.8,1.4l4.2,0.6l1.7,-1.5l0.4,-3.2l0.5,0.5l1.4,-1.4l2.3,-2.9l2.1,-2.7l1,-2.7l1.2,-1.8l3.5,-0.5l4,2.3l2.4,0l2.8,2.2l4.3,2.1l1.5,2l3.5,4.3l2.2,3.1l3.7,0l6.6,0.2l3.2,-1.3l2.3,-0.9l3.6,-0.7l4.3,-3.6l2.2,-1.1l1.6,1.3l2.8,3.2l0.8,2.7l1.2,3.6l0.6,2.9l-0.1,2.5l-1.6,3.3l-1.1,2.5l0,2.7l1.3,0.5l2,0.6l1.5,1.6l1.9,0l1,-0.7l1.2,-1.3l3,-0.2l2.2,-0.3l1.4,1.8l0.6,2.3l0.5,3.8l1.1,1.6l2.2,2l2.8,1.6l3.1,0.4l1.6,-0.4l2.1,-1.2l1.6,-0.9l2.9,-0.2l1.5,0l0,0.9l1,1.1l1.4,1.2l0.3,4.9l-0.3,7.2l0.3,8.9l0,2.5l0.6,0.9l0.4,0.8l0,0.1z" fill="#b51b1b" id="MK410" stroke="#ffff7c"/>
   <path d="m829.7,603.1l-0.4,-0.5l-4.1,-1l-5.4,1.5l-1.2,3.4l0.3,4.2l-0.8,3.9l-6.1,7.8l-6.1,5.1l-1.2,0.5l-0.1,-0.1l-1.1,-2.5l-5.3,-3.6l-5.8,-3l-3.3,-1.8l-3.8,-0.4l-2.6,0l-1.7,-0.2l-0.8,-0.9l0.2,-2.1l0.1,-2.4l0.7,-2.6l1.2,-3.5l0.6,-3.8l0,-2.3l-0.4,-2.4l-1.8,-2.7l-1.7,-2.8l-2.2,-2.4l-1.3,-2.4l0.4,0l1.6,-1.3l2.2,-1.6l2.3,-1.7l0.3,-2.6l0.6,-5.6l0.1,-3.1l1.6,-2.7l6.2,-0.2l0.9,1.5l0.6,1.6l3.4,2.2l1.7,0.1l0.7,2.6l2,2.2l2.5,1.2l1.5,1.8l1.9,3.1l2,0.4l2.7,0l1.8,0l1.6,-0.5l1.3,-0.8l2.1,0l2.8,0.2l2.6,1l2.6,1.9l3.4,2.4l1.7,0l0.8,1.2l0.2,3.9l-0.1,3.5l-0.1,2.5l0.4,0.1l-2.2,3.7z" fill="#b51b1b" id="MK401" stroke="#ffff7c"/>
   <path d="m804.7,628l-5.5,2.1l-7.8,0.5l-11.6,-1.7l-5.6,0l-6.8,2.1l-4.9,1.3l-5.7,0.6l-10.5,-0.5l-4.1,-1.5l-7.5,-4.9l-3.2,-1.6l-4.4,-0.3l-9,1.6l-6.7,0.2l-3,1.9l-2.2,-0.2l-0.7,-1.7l-0.5,-6.2l-1,-1.8l-3.2,-0.9l-10.8,-1.4l-13.4,-4.3l-4.1,-0.5l0,-0.1l-1.9,-5.3l0.7,-2l0.4,-3.1l1.2,-2.6l2.1,-1l6,-1l5.1,0.2l2.4,-0.2l1,-0.6l0,-2.4l-0.7,-2.2l-0.9,-2.2l-0.6,-4.1l-1.1,-2.6l-1,-3.4l0.3,-3l1.2,-0.2l1.3,-0.2l1.8,0l4.2,-2l2.9,-2.6l3.5,-3l1.5,-0.4l2,-1l0.1,-2.7l-0.9,-1.2l-1.8,0l-1.9,-1l-0.5,-2.8l0,-2.6l0,-6l-0.2,-2.8l-0.8,-1.6l-1.2,-2.4l0,-0.3l0.2,-1.7l2,-2.7l2.6,-3.2l1.8,-1.6l3,-0.2l4.2,-0.2l4.6,0.4l3,0l1.8,-0.6l0.4,-2l0.2,-4l-0.3,-3.6l-1.5,-4.8l-1,-1.6l-1.8,-2.2l-0.3,-2.3l0.1,-2.6l0.3,-1.2l0.3,0.3l4.7,0.3l3.1,0.2l2.8,0.5l3.4,3.8l4.5,2.2l3.8,0.5l2.3,1.9l2.8,4.6l5.7,6.6l3.2,5l2.5,2.4l3.7,1.5l2.6,0l1.3,0.7l0.8,3.3l0,4.2l-0.2,9.3l1.9,4.1l2.2,6.9l-0.2,4.8l0.2,3.8l2.8,1l1.2,1.9l0,2.2l1.6,2.9l1.8,2.9l0.8,0l1.3,2.4l2.2,2.4l1.7,2.8l1.8,2.7l0.4,2.4l0,2.3l-0.6,3.8l-1.2,3.5l-0.7,2.6l-0.1,2.4l-0.2,2.1l0.8,0.9l1.7,0.2l2.6,0l3.8,0.4l3.3,1.8l5.8,3l5.3,3.6l1.1,2.5l0.1,0.1z" fill="#b51b1b" id="MK405" stroke="#ffff7c"/>
   <path d="m672.5,610.8l-2.8,-0.4l-8,0.7l-8.1,3.8l-12.7,11.6l-7.5,2.7l-2.6,-1l-11.8,-6.4l-0.8,-1.3l-0.6,-2.4l-1.1,-2.2l-2.6,-1l-1.5,0.9l-3.6,4.1l-1.7,1.3l-22.7,6.7l-10.7,5.8l-3.3,2.4l0,-0.1l-0.1,-0.2l-0.7,-5.3l0,-4.1l-0.9,-2.4l-2,-0.2l-2,0l-3,0l-2.7,-0.8l-2,-1.4l-0.7,-3.6l-0.5,-6.8l0.5,-9.2l-0.1,-5.9l-2.7,-4.6l-1.8,-0.9l-2.2,-4.1l0.2,-5.6l0.5,-4.3l2.2,-4.4l1.8,-3.1l0.7,-3.9l1.3,-1.4l-0.7,-2l-1.4,0l-4.6,-0.4l-2.4,0.2l-3,0.2l-3.7,0l-3.1,-0.9l-1.6,-3.4l-1.8,-6.3l-0.9,-4.1l-0.2,-7l0.5,-5.1l0,-2.7l0.8,-3.3l0.9,-1.5l1.1,-2.4l0.2,-3.4l0,-3.4l-0.8,-4.1l-2,-3.4l-1.9,-2.5l-0.7,-4.1l0.3,-4.9l0,-4.3l1.3,-2.7l0,-5.8l-0.7,-2.4l-1.8,0.9l-0.9,1.7l-0.9,2.5l-1,1.6l-3.4,0l-1.8,-1.2l-3.8,-4.1l-2.2,-3.4l0,-3.7l0,-0.6l3.1,-3.7l2,-3.9l2.2,-2.1l4.1,0.7l1.7,1.9l0.3,0.5l2,3.2l3.6,5.1l3.2,3.4l6.3,0.7l2.7,0l2.4,-0.7l5.4,0l5.5,-0.3l2.5,-1.9l0.8,-6.1l1.6,-1.7l3.1,0l2.3,1l3,1.4l2.9,2.5l2,0.7l1.8,-0.7l0.1,-3.7l1.5,-1.9l2.5,-1.5l3.7,-2.4l0.9,-7.7l-0.4,-6.3l1.1,-3.9l1.1,-1.2l2.5,2.1l3.8,0l3.2,-0.2l3.6,-2.2l2.9,-0.5l3.6,1.5l1.8,2.7l-0.1,9.7l0.9,5.5l1.1,5.1l1.6,7.3l-0.2,8l0.2,8.7l1.6,7.3l3.1,5.3l0.7,3.9l-0.1,2.9l0.1,2.1l3.5,2l2,1.5l-0.6,0l3.5,2.9l5.9,5.8l3.5,3.3l1.8,1.6l1.4,0.5l1.2,1.3l1.4,1.6l2,1.1l2.2,0.3l1.6,2.7l1.8,5l5.1,3.5l5.8,3.7l6.4,0.9l5.8,-0.9l8.9,-5l10,-7l2.2,-0.8l0,0.3l1.2,2.4l0.8,1.6l0.2,2.8l0,6l0,2.6l0.5,2.8l1.9,1l1.8,0l0.9,1.2l-0.1,2.7l-2,1l-1.5,0.4l-3.5,3l-2.9,2.6l-4.2,2l-1.8,0l-1.3,0.2l-1.2,0.2l-0.3,3l1,3.4l1.1,2.6l0.6,4.1l0.9,2.2l0.7,2.2l0,2.4l-1,0.6l-2.4,0.2l-5.1,-0.2l-6,1l-2.1,1l-1.2,2.6l-0.4,3.1l-0.7,2l1.9,5.3l0,0.1z" fill="#b51b1b" id="MK104" stroke="#ffff7c"/>
   <path d="m421.6,732.8l0.1,-0.1l1.8,-4.9l0.1,-0.5l0,-4.3l-1.3,-5.6l-0.2,-4.3l-1.1,-3.9l-3.8,-5.7l-4.7,-5.1l-4.5,-5.4l-1.5,-3.4l-3.4,-1.1l-4.3,-0.8l-0.2,-3.7l-0.2,-6.5l-0.7,-4.3l-2.6,-2.8l-1.6,-1.7l-1.1,-2l-0.7,-4.8l0.3,-3.4l1.2,-2l0.9,-2.8l0,-4.8l0.7,-2.1l0.8,-2.2l3.2,-4.2l5.5,-4l3.7,0l5.3,2.3l4.8,1.7l8.4,1.1l7.6,1.1l4.1,-2.5l5.5,-7.1l5.2,-6.2l4.3,-6l1.4,-7.1l0.2,-0.1l3,-2.7l2.6,-0.3l1.5,1.7l1.5,3.4l1.9,3.1l5.5,4l4.8,1.7l6.4,0.9l7.9,1.1l3.6,0.6l7.7,3.6l4,2l4.9,1.2l3.7,0.5l3.2,2.3l3.6,4.8l3,2l4.9,1.4l4.7,0l3.4,-0.3l1.5,-2.8l1.1,-0.3l1.1,0.6l1.3,2.8l2.9,3.1l3.9,3.4l3.8,0.9l7.6,3.5l0.3,0.1l-0.1,1.6l-0.7,3.5l-4.8,7.3l-12.6,12.2l-4.8,8.8l-0.1,0l0,0.1l-13.3,9.3l-3.6,4.4l-0.6,3.9l-0.1,5.1l-1.2,5.3l-4.5,4.6l-3,0.7l-7.1,1.5l-18.4,-4.1l-10,4.6l-0.7,1.8l-0.8,6.1l-1.4,2.6l-1.7,0.6l-5.1,-0.3l-2.1,0.4l-3.5,2.8l-8.3,8.3l-3.1,2l-9.9,-1.9l-15.6,-14.1l-1.4,-0.2z" fill="#b51b1b" id="MK507" stroke="#ffff7c"/>
   <path d="m570.4,636.1l-5.8,4.4l-2.8,3.2l-1.4,4.4l-0.3,7.8l-0.3,-0.1l-7.6,-3.5l-3.8,-0.9l-3.9,-3.4l-2.9,-3.1l-1.3,-2.8l-1.1,-0.6l-1.1,0.3l-1.5,2.8l-3.4,0.3l-4.7,0l-4.9,-1.4l-3,-2l-3.6,-4.8l-3.2,-2.3l-3.7,-0.5l-4.9,-1.2l-4,-2l-7.7,-3.6l-3.6,-0.6l-7.9,-1.1l-6.4,-0.9l-4.8,-1.7l-5.5,-4l-1.9,-3.1l-1.5,-3.4l-1.5,-1.7l-2.6,0.3l-3,2.7l-1.3,-1.5l-4.2,-1.4l-5.4,-1l-4.9,-1.8l-6.4,-5.1l-2.6,0l-1.9,1.4l-2.7,1.8l-4,0l-3.8,-0.2l-6.8,-3.7l-2.4,-4.4l-2.3,-0.9l-3.8,-0.2l-3.9,-0.3l-2,-2.1l-1.3,-3.7l-4.4,-3.4l-4.2,-6.8l-4.5,-2.7l-3.3,-0.3l-5.4,-1.1l-1.7,-2.6l-0.4,-3l0.4,-0.1l2.2,-0.6l5,-0.2l3,-2.1l2.6,-3.5l2.5,-2.5l2.2,-2.6l1.4,-7.2l0.4,-4.1l1.7,-2.3l1.4,-3.3l0,-4.2l-1.6,-1.1l-3.4,-0.5l-3.7,-0.2l-1.4,-1.9l-0.2,-2.5l-1.5,-1.2l-0.2,-3l0.2,-1.4l4,-3.5l1.6,-1.4l1.2,-1.1l2,-1.6l1.8,-1.7l2.4,-0.4l1.6,-2.8l2.1,-3l2.8,-2.4l1.7,-1.6l3,0l4.3,0l5.1,-1.4l3.2,-1.1l11.7,-0.5l3.6,-1.8l4.2,-5.4l4.5,-1.6l3.3,-1.2l0.7,-5.5l2.1,-5.9l2.8,-3l3.9,-1.8l0.2,0l1.5,0l3.1,0.2l2.6,0.5l2.7,1.8l1.9,3l0.7,2.6l3.3,0.2l3.3,-0.9l1.9,-0.9l2.6,-5.6l0.4,-5.4l0.1,-3.9l1.1,-1.9l1,-0.7l3.3,-0.2l2.3,0l3.7,-0.5l1.7,-1.4l2.8,-1.3l2.4,0l1.9,0.7l1.4,2.3l2.7,1.4l3.4,1.4l3.3,1.8l1.2,2.8l1.8,3.5l1.9,1.5l0,3.7l2.2,3.4l3.8,4.1l1.8,1.2l3.4,0l1,-1.6l0.9,-2.5l0.9,-1.7l1.8,-0.9l0.7,2.4l0,5.8l-1.3,2.7l0,4.3l-0.3,4.9l0.7,4.1l1.9,2.5l2,3.4l0.8,4.1l0,3.4l-0.2,3.4l-1.1,2.4l-0.9,1.5l-0.8,3.3l0,2.7l-0.5,5.1l0.2,7l0.9,4.1l1.8,6.3l1.6,3.4l3.1,0.9l3.7,0l3,-0.2l2.4,-0.2l4.6,0.4l1.4,0l0.7,2l-1.3,1.4l-0.7,3.9l-1.8,3.1l-2.2,4.4l-0.5,4.3l-0.2,5.6l2.2,4.1l1.8,0.9l2.7,4.6l0.1,5.9l-0.5,9.2l0.5,6.8l0.7,3.6l2,1.4l2.7,0.8l3,0l2,0l2,0.2l0.9,2.4l0,4.1l0.7,5.3l0.1,0.2l0,0.1z" fill="#b51b1b" id="MK508" stroke="#ffff7c"/>
   <path d="m421.6,732.8l-27,-3.8l-8.7,0.2l-8.4,3.8l-12.9,12.9l-5.5,3.1l-12,2.6l-12.2,0l-5.4,-1.1l0.1,-0.1l1,-3.2l0.5,-0.7l1.3,-5.4l0.8,-5.1l1.3,-2.9l0.4,-3.1l-0.8,-2.3l-3.7,-2.2l0.5,-6l-1.6,-6l-1.9,-1.4l-5,-0.3l-3.6,0l-3.6,-1.2l0,-3.7l-1.6,-3.1l-3.8,-5.4l-4.8,-2.6l-4.9,0l-6.1,0.3l-3.8,0l-2.6,-2.3l0,-3.7l-0.9,-2.8l-2.3,-2.9l-3,-3.1l-1.8,-3.5l-0.8,-4l0,-4.2l-1.6,-1.3l-6.2,-1.1l-2.4,-2.8l0,-5.4l1.3,-4.6l3,-2.2l3.5,-3.2l3.5,-6.1l0.8,-5.3l-0.8,-4.3l-3.2,-3.6l0,-2.5l0.1,0l3.9,-1.8l4.8,-2.1l3.3,-1.8l4.5,-0.7l3.8,-0.4l4.6,-2.1l3.8,-1.8l4,-5.3l5.4,-3.3l4.5,-0.3l2.8,-4.3l1.8,-3.6l3.2,-0.3l4.1,-2.2l6.5,-5l3.4,-6.1l3.3,-2.5l0.7,-0.2l1.7,-0.5l2.1,2.5l2.5,1.8l2.2,0.2l0.5,0.6l2.6,3.9l0,4l-1.4,3.2l-1.7,2.8l0,4.6l1.2,4.2l1.9,4.1l3.1,3.7l3.5,2.3l4.8,1.7l2,2.1l0.7,3.2l0.2,3l-0.3,3.5l0,4.4l-0.2,4.6l0.8,2.5l1.8,1.9l2.8,1.6l2.8,0.7l1.9,0l3.6,-2.3l2.6,-1.9l1.8,-0.4l2.3,0l2.9,0.7l0.9,0.7l-0.7,2.1l0,4.8l-0.9,2.8l-1.2,2l-0.3,3.4l0.7,4.8l1.1,2l1.6,1.7l2.6,2.8l0.7,4.3l0.2,6.5l0.2,3.7l4.3,0.8l3.4,1.1l1.5,3.4l4.5,5.4l4.7,5.1l3.8,5.7l1.1,3.9l0.2,4.3l1.3,5.6l0,4.3l-0.1,0.5l-1.8,4.9l-0.1,0.1z" fill="#b51b1b" id="MK501" stroke="#ffff7c"/>
   <path d="m482.3,100.9l0.7,2.3l0.2,10.1l0,6.4l1.4,4.4l1,5.2l0,4l-0.7,1.8l-1.9,0.9l-2.8,0.3l-2.3,1.9l0,3.8l0.2,2.2l-0.1,4l-0.1,2.2l-1.1,0.8l-1.9,-0.3l-2.1,-1.7l-2.1,-0.7l-1.8,0.7l-1.2,2.5l0,4.2l0.1,4.2l-0.4,4.5l-1.5,4.8l-2.6,2.7l-2.6,2.3l-3.1,1.9l-2.1,1l-1,3l0.1,3.5l1.7,1l-0.3,1.5l-2.1,8.9l-2.1,0.8l-5.7,-1.3l-2.6,-2.2l-2.8,-5.1l-2.4,-2.4l-2.4,-2.7l-1.8,-2.7l-2.1,-3.2l-5.4,-6.7l-3.1,-5.1l-2.3,-3.7l-3.7,-7.4l-4,-4.7l1.2,-3.3l3,-1.4l3.3,-1.7l3.2,-3l1,-6.4l0,-6.3l-1.3,-2.7l-2.9,-1l-4,-4.7l-3.8,-6.4l-0.7,-3.5l-2.8,-9.5l3.4,-4.1l6.3,4.3l7.2,-0.1l10.2,-2.7l4.3,-1.1l0.1,1l2.1,-0.2l2.9,1.5l17.6,-0.3l12.4,3.4l6.1,0.3z" fill="#b51b1b" id="MK704" stroke="#ffff7c"/>
   <path d="m409.7,98.9l2.8,9.5l0.7,3.5l3.8,6.4l4,4.7l2.9,1l1.3,2.7l0,6.3l-1,6.4l-3.2,3l-3.3,1.7l-3,1.4l-2,-0.7l-5.3,1.7l-3.1,7.7l-5.2,9.5l-1.8,6.5l-0.8,10.6l0.8,16.5l-3,1.2l-0.6,1l-1.3,-1.4l-1.1,-2.7l-2.7,-4.7l-2.8,-2.6l-3,0.7l-2.4,2.6l-0.3,4.8l0,3.3l-2.4,3.2l-3.8,-2.9l-4.2,-0.5l0,-6.7l-6.1,-13.6l-10.8,-10.6l-3.8,-2.2l0.2,-0.9l1.4,0l6.9,0l-5.8,-17.2l0,-9.4l10.4,-10.9l2.4,-7.8l3.4,-4.7l3.4,-5.7l1.3,-2.1l1,-1.4l5,-0.4l12.3,4.7l3.8,-0.3l-0.4,-3.3l-2.5,-4.2l-0.5,-3.5l3.3,0.6l6.9,4.6l1.5,-5.9l1.4,1.5l3.7,0.9l1.6,-1.9z" fill="#b51b1b" id="MK816" stroke="#ffff7c"/>
   <path d="m349,166.2l3.8,2.2l10.8,10.6l6.1,13.6l0,6.7l0,3.3l0,10.6l-0.2,7.2l-9,-0.8l-5.4,-7l-3.8,-8.8l-4.1,-7.6l-1.1,-6.3l-2.9,-3.3l-2.8,0.4l-2.1,2.6l-3.8,0.7l-3.3,-1.8l-2.5,-6.2l-0.8,-8.9l0.9,-3.6l3.2,-1.4l1.2,-0.4l11.6,2.3l3.7,-0.8l0.5,-3.3z" fill="#b51b1b" id="MK805" stroke="#ffff7c"/>
   <path d="m328.8,169.8l-0.9,3.6l0.8,8.9l2.5,6.2l3.3,1.8l3.8,-0.7l2.1,-2.6l2.8,-0.4l2.9,3.3l1.1,6.3l4.1,7.6l3.8,8.8l5.4,7l9,0.8l-0.2,7l0,8.8l0.6,1.5l-1.2,2.2l-3.7,0.4l-4.3,0l-6,3.4l-6.9,5.4l-4,3.9l-4.3,5l-4.6,3.4l-8.6,3.1l-5.1,2.3l-1.7,3.5l-0.1,1.1l-1.6,-0.9l-1.9,-0.9l-4.6,-5.6l-2.3,-0.3l-2.7,-3l0,-4.7l0.9,-8l1.2,-6.7l1.3,-5.9l0.3,-6.1l-1.2,-1.9l-4.8,-2.8l-4.6,-3.4l-4.3,-1.8l-3.7,-0.9l0.1,-0.5l0.1,-2l1,-0.9l1.8,-0.9l4.8,-1l4.1,-1.8l2.6,-0.9l0,-3.7l-3,-5.6l-0.9,-3.7l0.3,-2.7l2.3,-2.7l3.4,-1.5l1.4,-1.9l0,-4.3l-1.4,-4.2l-2,0.4l-2.3,1.5l-2.5,0l-2.9,-3.4l-2.8,-2.7l1.4,-2l4,-1.9l5.1,-0.4l4.3,-0.8l4.3,0l4.3,-0.7l3.9,-4.7l2.3,6l3.7,-1.7z" fill="#b51b1b" id="MK811" stroke="#ffff7c"/>
   <path d="m322.8,165.5l-3.9,4.7l-4.3,0.7l-4.3,0l-4.3,0.8l-5.1,0.4l-4,1.9l-1.4,2l2.8,2.7l2.9,3.4l2.5,0l2.3,-1.5l2,-0.4l1.4,4.2l0,4.3l-1.4,1.9l-3.4,1.5l-2.3,2.7l-0.3,2.7l0.9,3.7l3,5.6l0,3.7l-2.6,0.9l-4.1,1.8l-4.8,1l-1.8,0.9l-1,0.9l-0.1,2l-2.3,0.2l-3.4,0l-1.8,1l-1.9,2.9l-2.7,0l-7.1,-0.7l-4.2,-1.5l-0.8,-1.7l2.1,-2.2l0,-3.2l-1.8,-1.4l-2.6,1.4l-4,0l-6.1,-1.7l-1.3,-1.1l0,-0.4l-0.7,-3l-0.3,-1.2l1.3,-1.4l9.8,-2.1l6,-1.1l5.5,-2.8l2.4,-5.7l4,-7.1l3.1,-2.5l3.7,-4.6l0.5,-5.3l-1.3,-4.3l-2.6,-1.8l-3.4,-0.7l-2.9,-1.8l-3.2,-6.4l-4.7,-6.7l-5.3,-6.4l-5.7,-5.3l2.8,-3.8l6.9,-10.9l0.2,-0.2l7.6,-4.9l2.8,0l2.4,0.7l4.7,2.6l13.5,10.5l12.6,12.4l5.7,9.5l1.9,4l0.7,2.9l1.2,3.3z" fill="#b51b1b" id="MK606" stroke="#ffff7c"/>
   <path d="m259.8,139.4l5.7,5.3l5.3,6.4l4.7,6.7l3.2,6.4l2.9,1.8l3.4,0.7l2.6,1.8l1.3,4.3l-0.5,5.3l-3.7,4.6l-3.1,2.5l-4,7.1l-2.4,5.7l-5.5,2.8l-6,1.1l-9.8,2.1l-1.3,1.4l0.3,1.2l-0.8,-0.3l-2.8,-0.6l-3.1,-1.9l-1,-2l0,-3.5l0,-2.8l1,-3.5l-1.4,-2.9l-2.6,-3.5l-3.1,-1.3l-2.2,0l-3,-1l-1.2,-3.5l-1.9,-5.1l-2.8,-5.7l-3.1,-3.5l-3.4,-2l-4.5,-2.8l-1.9,-0.9l2.9,-5.6l15.6,-5.3l10.2,-3.5l3.9,-2l9.1,0l3,-4z" fill="#b51b1b" id="MK608" stroke="#ffff7c"/>
   <path d="m227.5,235.8l0.1,2.1l0.2,7l1.4,2.2l4.8,0l4,0.3l-0.2,3.5l-1.2,2.6l-1.4,4.4l-2.4,3.5l-2.6,1.9l-3.8,0.7l-1.7,2.5l0.3,2.2l1.2,2.6l0.4,2.2l-0.4,0l-2.1,0l-1.5,0l-2.4,-2.2l-4.7,-1l-9,-5.4l-10.2,-5.4l-11.6,-3.8l-11.1,-2.2l-10.9,-1.6l-4.1,1.2l-0.7,0.4l-1.5,-13.7l0.5,-0.2l0.5,-0.4l3.5,-1.7l4,-4.1l5.5,-2.9l6.1,-2.2l4.3,-3.2l3.5,-3.5l4.1,-2.5l5.4,-0.4l9.5,2.6l10.9,2.2l3.3,1.9l3.8,4.5l4.7,5.7l1.5,0.2z" fill="#b51b1b" id="MK601" stroke="#ffff7c"/>
   <path d="m226.8,284.8l-2.5,1.1l-1.4,1.6l-1.7,2.6l0.9,4.4l0.8,3.2l-3.6,4.1l-6.7,2.2l-11.3,-2.8l-9,1.2l-4.3,3.9l-6.4,-1l-6.1,-3.5l-2.2,-3.2l-2.1,-6l-2.4,-2.9l-4.7,-0.6l-5,0l-4.5,-0.3l-1.5,-0.8l-7.4,-3.2l-4.5,-4.6l3.2,-3.5l1.8,-3.2l3.4,-5.8l0.7,-1.2l3.4,-8.3l1.2,-1l3.5,0l-0.5,-3.7l0.7,-0.4l4.1,-1.2l10.9,1.6l11.1,2.2l11.6,3.8l10.2,5.4l9,5.4l4.7,1l2.4,2.2l1.5,0l0.6,1.9l-0.2,5.4l0.2,3.2l2.1,0.8z" fill="#b51b1b" id="MK603" stroke="#ffff7c"/>
   <path d="m776.4,142.1l-0.1,0l-6,3.2l-3.3,2.1l-6.3,4.3l-6.2,4.1l-3.7,5.4l-3.9,2.1l-2.4,1.3l0,1l-3.8,-0.7l-1.8,-0.3l-1.5,0l-2.6,0l-2.3,0l-4.3,0.4l-5.4,0.2l-2.2,0.2l-1,1.2l0,1.5l-4.6,-3.3l-5.6,-3.5l-6.2,-1.6l-3.7,-3.8l-2.6,-0.8l-2.2,2.2l-3,1l-6.8,1.4l-5.4,0.3l-5.3,-0.3l-3.8,0l-1.8,-2.2l0.3,-1.8l1.2,-4.3l0.3,-7l-1.3,-8.3l-2.5,-6.1l-2.3,-18.2l-1,-9.6l2.3,-9.6l-0.7,-7l-6.1,-6.5l-7.4,-2.2l-4.2,-4.8l-1.5,-11.5l33.8,-14.3l9.3,-9.7l3.3,-0.6l1.5,2.4l0.3,8.1l1,3.5l5.2,6.2l5.7,4.3l6.3,2.4l7,0.4l34.9,47.4l13.4,10.1l4.7,13.8l4.3,7.5z" fill="#b51b1b" id="MK702" stroke="#ffff7c"/>
   <path d="m645.7,60.6l1.5,11.5l4.2,4.8l7.4,2.2l6.1,6.5l0.7,7l-2.3,9.6l1,9.6l2.3,18.2l2.5,6.1l1.3,8.3l-0.3,7l-1.2,4.3l-1,0.1l-2.7,1.3l-0.5,4.1l0.2,3.3l-0.7,1.5l-3.2,1.5l-4.5,1.1l-3.5,1.7l-3.1,0.2l-2.9,0l-2.7,-2.1l-3.6,-3.5l-5.9,-4.5l-4,-5.2l-5.8,-3.1l-3.8,-0.4l-4.2,0l-1.3,-2.2l-0.5,-5.6l0,-2l-1,-1l-3.5,0l-3.1,-2.9l-2.4,-2.9l1.1,0.1l3,0l2.6,-0.4l1.6,-2.2l0,-3l-1.3,-3.5l-2.7,-4.3l-1.6,-2.8l-0.3,-2.4l0.1,-6.8l0,-3.7l-1,-1.9l-1.6,-3l-0.7,-3.3l1.3,-2.8l5,-0.9l1.9,-0.2l2.4,-2.8l0,-3.1l-0.3,-5l-0.5,-4.1l-1.2,-3.4l-0.1,-7l5.5,0.6l12.2,-2.2l15.1,-6.4z" fill="#b51b1b" id="MK705" stroke="#ffff7c"/>
   <path d="m612.9,68.6l0.1,7l1.2,3.4l0.5,4.1l0.3,5l0,3.1l-2.4,2.8l-1.9,0.2l-5,0.9l-1.3,2.8l0.7,3.3l1.6,3l1,1.9l0,3.7l-0.1,6.8l0.3,2.4l1.6,2.8l2.7,4.3l1.3,3.5l0,3l-1.6,2.2l-2.6,0.4l-3,0l-1.1,-0.1l-2.3,-0.3l-4,-0.2l-3.6,0l-1.7,1.3l0,2.6l0.3,5.6l0,3.3l-0.3,4.9l-3.4,6.8l-3.5,5.4l-4.2,1.5l-4.5,0.2l-0.4,0.5l-1.4,-3.9l-1,-4.3l-1.6,-3.8l-2.4,-1.1l-3.1,0.3l-2,1.3l-0.8,2.7l-0.1,2.1l-1.6,2l-1.1,0.3l-3,-0.1l-6.1,-1.8l-3.6,-1.4l-1.5,-1.6l-1.6,-1.7l-2.4,-0.1l-4.1,0.8l-2.8,1l-2.5,2l-3.3,0.6l-3.6,1.8l-1.7,2.7l-2.8,0l-2.8,-1.2l-2.2,-2.9l-3.7,-4.2l-3.2,-4.8l-1.2,-3.8l-0.3,-4.6l-0.1,-3.1l0.1,-2.9l0.5,-2.3l1.4,-2.1l1,-2.2l-0.2,-4.8l0,-4.6l-1.2,-2.3l-0.9,-1.2l0.2,-3.8l0.7,-2.5l1.8,-1l2.6,-0.5l3,-1.1l0.7,-2.3l-0.1,-4l-2.3,-2.8l-2,-1l-3.1,-0.7l-3.6,-1.5l-0.6,-1.3l-7.3,-3.3l-3.3,-3.2l34.6,-21.2l7.2,-1.6l14.1,0.1l2.5,-0.6l12,-10.5l3.8,-1.8l4.5,1l18.9,9.8l11.6,4.2l6.3,0.7z" fill="#b51b1b" id="MK706" stroke="#ffff7c"/>
   <path d="m456.3,184.8l-1.7,-1l-0.1,-3.5l1,-3l2.1,-1l3.1,-1.9l2.6,-2.3l2.6,-2.7l1.5,-4.8l0.4,-4.5l-0.1,-4.2l0,-4.2l1.2,-2.5l1.8,-0.7l2.1,0.7l2.1,1.7l1.9,0.3l1.1,-0.8l0.1,-2.2l0.1,-4l-0.2,-2.2l0,-3.8l2.3,-1.9l2.8,-0.3l1.9,-0.9l0.7,-1.8l0,-4l-1,-5.2l-1.4,-4.4l0,-6.4l-0.2,-10.1l-0.7,-2.3l5.4,-3.4l5.1,-6.2l4.6,-2.8l3.3,3.2l7.3,3.3l0.6,1.3l3.6,1.5l3.1,0.7l2,1l2.3,2.8l0.1,4l-0.7,2.3l-3,1.1l-2.6,0.5l-1.8,1l-0.7,2.5l-0.2,3.8l0.9,1.2l1.2,2.3l0,4.6l0.2,4.8l-1,2.2l-1.4,2.1l-0.5,2.3l-0.1,2.9l0.1,3.1l0.3,4.6l1.2,3.8l3.2,4.8l3.7,4.2l2.2,2.9l2.8,1.2l2.8,0l1.7,-2.7l3.6,-1.8l3.3,-0.6l2.5,-2l2.8,-1l4.1,-0.8l2.4,0.1l1.6,1.7l1.5,1.6l3.6,1.4l6.1,1.8l3,0.1l1.1,-0.3l1.6,-2l0.1,-2.1l0.8,-2.7l2,-1.3l3.1,-0.3l2.4,1.1l1.6,3.8l1,4.3l1.4,3.9l-1.3,1.7l-1,6.9l-4,5.2l-2.2,4.6l0.3,3.2l1.4,2.2l2.8,0.4l3,0l3.2,0.2l1.2,2.6l0.5,3.9l0.9,4.8l1.6,1.7l2.6,1.5l4.2,4.1l0.9,3.6l0.2,0.5l-0.8,3.7l-3.4,2.6l-6.4,2.4l-5.2,2.8l-3.8,0.2l-2.1,-2.2l-2.3,-4.5l-3.7,-4.1l-4.8,-1.3l-5.3,0.2l-4.3,0.9l-2.6,2.6l-5,4.1l-1.9,2.6l-0.8,3.2l0,3.5l-1.8,2.4l-2.9,2.3l-1.1,2.6l-2.7,2l-0.5,1l-1.3,-0.7l-3.5,-2.5l-2.8,-4l-3.3,-2.4l-5.1,-0.1l-4.1,0.3l-2,1.6l-2.7,1.2l-2.4,0l-2.1,-1l-1.3,-3.8l-3.5,-2.7l-3.5,-0.7l-5.2,-2.8l-1.9,-2.3l-0.5,-0.5l0,-2l0.4,-3l0.6,-2.7l0,-4.2l-0.9,-1.8l-2.2,0l-2.6,0l-4.1,-3.5l-4.3,-3.7l-4.2,-2.5l-1.1,-2.9l-0.2,-0.8l-0.2,-4.6l-2.8,-1.9l-4.2,-2l-3.2,0z" fill="#b51b1b" id="MK703" stroke="#ffff7c"/>
   <path d="m819,175.4l17.3,8.8l10.6,2.3l1.6,1.4l1.3,2.1l1.6,1.9l2.3,1l16.2,-0.7l3.6,0.4l1.6,1.9l0.8,3.1l1.2,3.2l2.8,2.2l2.5,0l5.4,-1.9l2,0.1l4,2.7l2,2.4l0.6,3.3l0.1,0.3l0.3,6.3l0.1,0.1l2.8,5.1l0.8,5.2l0.6,11.4l2.7,11l3.8,10.8l0.5,3.4l-0.1,7l0.9,3.6l0.5,0.5l-0.1,0.1l-1.1,1.1l-1.4,1.6l-4.4,3.2l-6.3,4.5l-4.7,5.2l-2.2,4.1l-2.8,6.1l-1.9,3.6l-3,0.5l-4,1.6l-2.6,4l-3.5,3.9l-2.9,0.4l-3.2,-0.4l-0.8,0l-5.9,-3.4l-5.1,-1.6l-7.2,-0.9l-6.1,-0.7l-3.5,0.2l-0.9,-2.4l-0.3,-0.7l0.2,-4.8l0.7,-3.4l2.5,-3.4l2.2,-4.3l1.5,-7.6l1,-6.8l3,-5.5l1.4,-3.1l1.5,-1.4l0,-2.5l-1.2,-0.2l-2.2,0l-3.2,-0.7l-4.3,-1.1l-7,-3.6l-6.7,-3.7l-7.1,-2.2l-3.9,-0.9l-1.5,-1.4l0,-4.1l-0.1,-5.2l-0.5,-6.3l0,-7.5l-0.3,-3.1l-0.7,-7.8l0.8,-2.5l1.7,-0.6l1.7,-0.3l2,-0.4l0.8,-1.4l0.2,-3.4l0.2,-4.5l0,-6.8l0.1,-7l0.5,-6.9l0.2,-4.5z" fill="#b51b1b" id="MK203" stroke="#ffff7c"/>
   <path d="m776.4,142.1l1.2,1.9l7.4,7.5l30.7,22.2l3.3,1.7l-0.2,4.5l-0.5,6.9l-0.1,7l0,6.8l-0.2,4.5l-0.2,3.4l-0.8,1.4l-2,0.4l-1.7,0.3l-1.7,0.6l-0.8,2.5l0.7,7.8l-3.2,-1.5l-5.4,-0.7l-2.7,0.4l-2.2,2.1l-0.8,2.9l-0.7,4.3l-2.2,4.8l-2.5,5.2l-4,2.7l-2.6,0l-3.2,-1.3l-1.7,-0.9l0,-0.2l0,-3.7l-1.7,-2.9l-0.7,-3.7l0.2,-4.9l-0.2,-4.4l-2.4,-2.9l-0.8,-2.7l-2.5,-3.2l-1.4,-2.3l0.2,-3.6l-1,-7.2l-1.4,-1.6l-5.2,-2.8l-3.5,-2l-1.6,-4.1l0,-9.7l-0.3,-5.2l-2.3,-3.4l-2.1,-1.4l-2.1,1.1l-1.4,2.7l-1.7,1.6l-2.4,-1.3l-1.5,-4.8l0,-1.3l0,-1l2.4,-1.3l3.9,-2.1l3.7,-5.4l6.2,-4.1l6.3,-4.3l3.3,-2.1l6,-3.2l0.1,0z" fill="#b51b1b" id="MK207" stroke="#ffff7c"/>
   <path d="m946,366.7l-3.1,5l-2.3,6.9l-1.1,2.4l-2,1.2l-5.6,1.6l-1.7,1.7l-1.7,5.4l-1.1,6.5l-0.3,6.9l0.6,6.3l1.1,2.7l3.4,5.3l0.8,3.2l-0.3,2.7l-1.7,7.9l0.2,7.3l-0.2,0l-3.2,0.7l-3,1.3l-12.5,0.9l-9.1,0l-2.3,0l-1.7,0l-3.3,-4.5l-3.1,-2.3l-6.9,-0.4l-5.2,-0.2l-6.2,-0.9l-4.2,-0.9l-5.3,-3.6l-3,-3.7l-1,-4.2l-2.5,-3.6l-3.7,-0.5l-1.4,-0.2l-9.2,-2.3l-5.4,0.3l-2.4,0l-0.3,-2.3l0.1,-1.8l2.2,-1.1l2.2,-0.7l0.9,-2.2l0.1,-3.6l0,-3.6l-1.1,-3l-1.7,-1.5l-4.2,-1.2l-5.1,-5.4l-2.4,-0.6l-1.7,1.4l-1.9,4.5l-1.7,0.9l-1,0l-1.1,-3.4l0.4,-4l-0.3,-0.9l-1.4,-3.3l-0.6,-3.9l0.2,-3.1l2.1,-2.9l3,-5.6l1.9,-2.5l0.2,-2.6l-1.7,-1.9l-2.7,-1.4l-2.6,-2.3l-1.3,-6.2l-0.2,-4.9l0.1,-3.5l0,-0.1l2.9,-2.5l3.8,-0.7l4.9,0l3.4,-4l2.4,-5.7l1.3,-5.6l0.5,-7.9l-0.5,-5l-1.2,-2.5l0.7,-3.8l0.8,-0.2l0.9,2.4l3.5,-0.2l6.1,0.7l7.2,0.9l5.1,1.6l5.9,3.4l0.8,0l0.5,3.8l2.9,6.8l2,6.3l2.5,1.4l0.7,2.7l0.2,4.5l1.3,3.1l2.9,0.7l1,-0.7l0.3,-2.5l2.1,-1.5l4.8,-0.3l15.5,3l4.1,1.8l1.8,3.4l0,3.3l1.9,0l3,-0.2l5.6,0.5l5.4,3.4l6.7,5.6l4.9,1.6l4.7,1.6l4,2.9l1.7,1.5l0.2,0.2z" fill="#b51b1b" id="MK201" stroke="#ffff7c"/>
   <path d="m909.4,274.3l1,1.2l4.2,2.2l1.6,1.9l2.2,5.7l3.8,16.3l7.6,17.8l2.2,3.5l3.9,1.8l8.4,0.4l3.7,1.8l6.3,10l0.2,11.2l-3.8,11l-4.7,7.6l-0.2,-0.2l-1.7,-1.5l-4,-2.9l-4.7,-1.6l-4.9,-1.6l-6.7,-5.6l-5.4,-3.4l-5.6,-0.5l-3,0.2l-1.9,0l0,-3.3l-1.8,-3.4l-4.1,-1.8l-15.5,-3l-4.8,0.3l-2.1,1.5l-0.3,2.5l-1,0.7l-2.9,-0.7l-1.3,-3.1l-0.2,-4.5l-0.7,-2.7l-2.5,-1.4l-2,-6.3l-2.9,-6.8l-0.5,-3.8l3.2,0.4l2.9,-0.4l3.5,-3.9l2.6,-4l4,-1.6l3,-0.5l1.9,-3.6l2.8,-6.1l2.2,-4.1l4.7,-5.2l6.3,-4.5l4.4,-3.2l1.4,-1.6l1.1,-1.1l0.1,-0.1z" fill="#b51b1b" id="MK208" stroke="#ffff7c"/>
   <path d="m291.5,218l-0.1,0.5l3.7,0.9l4.3,1.8l4.6,3.4l4.8,2.8l1.2,1.9l-0.3,6.1l-1.3,5.9l-1.2,6.7l-0.9,8l0,4.7l2.7,3l2.3,0.3l4.6,5.6l1.9,0.9l1.6,0.9l-0.2,2.7l2.5,3.5l4.1,2.6l2,1.6l0,4.2l-0.9,7.7l-2,6.1l0.4,0.4l-2.6,-1.2l-3.6,-1.6l-4,-3.8l-4.2,-2.9l-3.4,-0.9l0,-4.5l-1.9,-2.9l-2.6,0l-2.6,1l-0.7,2.5l-0.7,2.2l-2.6,0.4l-4.7,0l-4,0l-2.4,-2.3l-4.5,-3.8l-4.3,0l-5.4,-0.3l-3.6,-0.6l-0.2,-4.2l0.2,-4.7l1,-3.5l3,-0.7l1,-2.2l0,-1.6l-1.7,-4.1l-2.1,0l-2.6,0l-3.3,-2l-0.7,-6.9l0,-4.2l-2,-0.9l-3,-0.4l-4.1,-4.1l-2.3,-4.1l-1.2,-2.2l0,-0.1l2.6,-3.5l3.1,-1.2l2.6,-0.4l1.4,-0.6l0.3,-3.5l-1.2,-1l-3.8,-1.2l-1.7,-2.6l-0.7,-2.2l-3.1,-1l-1.4,-1.6l0,-1.2l1.9,-2.9l1.9,-2.6l2.2,-0.5l0,0.4l1.3,1.1l6.1,1.7l4,0l2.6,-1.4l1.8,1.4l0,3.2l-2.1,2.2l0.8,1.7l4.2,1.5l7.1,0.7l2.7,0l1.9,-2.9l1.8,-1l3.4,0l2.3,-0.2z" fill="#b51b1b" id="MK605" stroke="#ffff7c"/>
   <path d="m270.4,319.2l-1.6,-3.1l-3.1,-4.1l-3.8,-5.1l-6.4,-5.1l-2.8,-3.5l0.5,-3.5l-1,-3.8l-2.1,0l-5.4,0.3l-7.6,-0.9l-7.6,-4.5l-2.7,-1.1l-2.1,-0.8l-0.2,-3.2l0.2,-5.4l-0.6,-1.9l2.1,0l0.4,0l-0.4,-2.2l-1.2,-2.6l-0.3,-2.2l1.7,-2.5l3.8,-0.7l2.6,-1.9l2.4,-3.5l1.4,-4.4l1.2,-2.6l0.2,-3.5l-4,-0.3l-4.8,0l-1.4,-2.2l-0.2,-7l-0.1,-2.1l1.4,0.2l0.7,-2l1.9,-3.8l2.1,-1.3l2.2,0.4l2.8,2.2l4.5,3.2l2.8,0.3l3.6,0.7l1.2,2.2l2.3,4.1l4.1,4.1l3,0.4l2,0.9l0,4.2l0.7,6.9l3.3,2l2.6,0l2.1,0l1.7,4.1l0,1.6l-1,2.2l-3,0.7l-1,3.5l-0.2,4.7l0.2,4.2l3.6,0.6l5.4,0.3l4.3,0l4.5,3.8l2.4,2.3l4,0l4.7,0l2.6,-0.4l0.7,-2.2l0.7,-2.5l2.6,-1l2.6,0l1.9,2.9l0,4.5l-1.4,-0.4l-4.7,0l-6.9,5.1l-8.3,9.2l-5.9,9.6l-5,4.7l-4.9,1.2z" fill="#b51b1b" id="MK602" stroke="#ffff7c"/>
   <path d="m261.2,380.7l1.8,-6.8l-0.7,-8.3l-1.2,-3.1l-1.6,-2.3l-1,-2.5l0,-3.8l-0.5,-4.1l-3.3,-2.6l-1.7,-4.7l0.5,-2.6l1.9,-1.6l2.9,0l0.9,-1.9l0,-4.7l0,-7l1.9,-4.5l7.4,-0.6l1.9,-0.4l4.9,-1.2l5,-4.7l5.9,-9.6l8.3,-9.2l6.9,-5.1l4.7,0l1.4,0.4l3.4,0.9l4.2,2.9l4,3.8l3.6,1.6l2.6,1.2l3.6,3.9l4.3,4.9l5.1,8.5l6.6,9.2l5.5,10.7l6.8,6.2l5.8,0.7l2.2,-1.7l2.6,0.9l4,0l3.2,3.5l0,11.4l0,4.8l4,8.4l3.1,3l0.4,-1.4l0.5,3.3l-2.3,4.2l-3.1,3.9l-2,1.9l-1.2,1.5l-0.3,3.1l1.5,3.8l0,4.6l-0.3,5.7l-0.2,1.5l-1,0l-1.8,0l-0.5,5.8l-0.4,8.6l-2.2,5.6l-2.6,3.2l-3.2,3.7l-2.1,2.6l-1.9,3.5l-1,3.3l0.2,7.2l0.1,5.1l-1.7,-0.5l-2.8,-1.4l-1.9,-1.4l-3.7,-1.4l-4.1,0.7l-1.5,1.9l-1.4,3.2l-1.9,1.2l-2.5,0l-2.6,1.6l-0.5,1.2l0,2.8l0.4,0.6l-1.5,-0.2l-3.2,0.3l-0.8,3l0,2.8l0,4.3l-1.3,3.8l-4.9,2l-6.5,2l-4.7,2.4l0,-1.4l-1.1,-3.7l-3.4,-2.1l-3.7,-0.5l-4.1,-1.7l-2.1,-2.3l-1.3,-2.3l-0.4,-1.8l0,-3l0,-3l-0.2,-1.3l-1.7,-1.3l-4.4,0l-2.8,2.1l-2.3,1.2l-2.6,0.8l-3.3,1.2l-3.4,0.3l-1.9,0l-3.4,1l-0.1,0l0,-2.3l0,-1.9l0.7,-3.4l2.6,-1.6l3.3,-1l2.2,-3.5l5.2,-3.7l4,-5.4l4,-4.1l3.6,-2.3l-0.2,-2.8l-3.4,-2.2l-4.5,-2.2l-4.2,-4.1l-1.9,-2.9l-1,-7.6l-1.2,-2.8l-0.2,0.3l0.5,-6.4l0,-7.3l0,-6l-1.9,-3.8l-5,-2.2l-3.8,0l-3.8,-0.3l-2.1,-1.9l-1.1,-4.3z" fill="#b51b1b" id="MK308" stroke="#ffff7c"/>
   <path d="m131.6,487.2l-0.9,-1l2.8,-5.3l1,-3.2l1.2,-5.7l0.7,-5l1.4,-4.1l2.4,-3.2l2.8,-0.6l1.7,0.9l1.7,0.7l3.9,1.5l5.7,1l4.5,-1.6l3.8,-3.8l4.2,-8l4.4,-2.5l0,-5.9l0.4,-4.4l4.5,-5l0,-5.9l0,-5l0,-8.9l-2.3,-12.9l-0.6,-3l-1.4,-0.2l-4.8,1.2l-2.8,-2.2l-0.3,-3.1l3.8,-4.8l8.1,-0.3l2.8,-2.2l6.2,-7.3l4,-2.6l3.3,0l4.8,0l1.8,-1.5l5.7,-0.6l3.8,-0.4l7.4,2.2l5.4,2.9l5.3,3.8l3.3,4.4l2.6,3.2l3.2,2.9l0.3,-2l1.9,-1.2l3.3,-2.6l5,-0.6l4.5,-1.6l3.8,-0.6l3.1,-2.6l2.1,0l0.1,0.2l1.1,4.3l2.1,1.9l3.8,0.3l3.8,0l5,2.2l1.9,3.8l0,6l0,7.3l-0.5,6.4l0.2,-0.3l1.2,2.8l1,7.6l1.9,2.9l4.2,4.1l4.5,2.2l3.4,2.2l0.2,2.8l-3.6,2.3l-4,4.1l-4,5.4l-5.2,3.7l-2.2,3.5l-3.3,1l-2.6,1.6l-0.7,3.4l0,1.9l0,2.3l-6.4,-2l-5.5,0.7l-0.9,1.9l-0.2,3.1l1.6,4.2l0.8,4.1l0,3.4l2.3,3.8l4.3,-1.2l2.3,0l0.3,0l3.1,-1.6l2.8,-0.3l1.2,2.5l2.6,4.7l4.7,2.2l5.5,2.3l1.8,1.4l-0.8,1.9l2.4,5.6l0.4,2l-1.5,-0.9l-5.4,2.7l-1,3.6l-5.4,5.4l-5.7,3.6l-10.5,0.5l-7.1,0l-9.9,-0.3l-8.4,3.7l-8,6l-2.1,4.3l-2,-2.9l-3,-6.6l-2.9,-3.2l-6.6,-2.2l-2.6,-5.4l0.7,-5.3l-1.2,-6.1l-3.8,-7.8l-2.4,-6.7l-1.6,0l-11.9,-0.3l-7.6,-1.9l-10.8,-0.9l-9,0.3l-15.9,0.3l-11.4,-0.6l-3.1,2.8z" fill="#b51b1b" id="MK307" stroke="#ffff7c"/>
   <path d="m319.4,271.4l0.1,-1.1l1.7,-3.5l5.1,-2.3l8.6,-3.1l4.6,-3.4l4.3,-5l4,-3.9l6.9,-5.4l6,-3.4l4.3,0l3.7,-0.4l1.2,-2.2l0.7,1.5l8.3,0l7.5,0l6.5,0l1.4,0l3,0l2.2,1.2l0,2.3l0,3.6l1.5,2.4l-0.2,5.7l-1.3,8l-1.2,4l-5.7,0.3l-8.9,0.6l-5.5,-2.8l-3.7,-0.9l-4.8,0l-5.5,1.5l-2.5,2.8l0,6.1l1.6,4.3l4.3,0l4.8,1.6l2.8,0.3l1.8,1.8l-0.4,2.5l-3.2,0l-3.7,2.8l-1.4,4l-2,9.2l-0.7,5.2l-1.4,0.9l-2.3,0l-1.4,1.6l-0.4,3.6l1.6,1.9l3.2,1.2l1.6,4.6l-2.7,4.8l-1.4,7.2l0,5.4l1.8,5.4l1,0.3l-2.2,1.7l-5.8,-0.7l-6.8,-6.2l-5.5,-10.7l-6.6,-9.2l-5.1,-8.5l-4.3,-4.9l-3.6,-3.9l-0.4,-0.4l2,-6.1l0.9,-7.7l0,-4.2l-2,-1.6l-4.1,-2.6l-2.5,-3.5l0.2,-2.7z" fill="#b51b1b" id="MK812" stroke="#ffff7c"/>
   <path d="m369.7,199.3l4.2,0.5l3.8,2.9l2.1,4.4l4.1,4.8l5.5,1.4l2.9,0l1.8,-1.5l-0.1,3.7l-0.3,1.9l0.1,2.1l-2.9,0.5l-2.3,2.8l-1,5.4l2.6,2.6l3.8,3.8l-0.2,1.6l0.5,3l-1.4,0l-6.5,0l-7.5,0l-8.3,0l-0.7,-1.5l-0.6,-1.5l0,-8.8l0.2,-7l0.2,-7.2l0,-10.6l0,-3.3z" fill="#b51b1b" id="MK808" stroke="#ffff7c"/>
   <path d="m380.1,199.5l0,-3.3l0.3,-4.8l2.4,-2.6l3,-0.7l2.8,2.6l2.7,4.7l1.1,2.7l-0.4,-0.4l0.2,6l1.2,4.6l-1.6,1.4l-2.4,-0.4l-2.2,-2.9l-0.8,-2.9l-2.2,-2.6l-3,-0.4l-1.1,-1z" fill="#b51b1b" id="MK817" stroke="#ffff7c"/>
   <path d="m414.7,145.5l-1.2,3.3l4,4.7l3.7,7.4l2.3,3.7l-4.3,2.6l-6.5,8.3l-4,7.7l-0.8,9.4l0,5.3l0,4.7l0,6.5l-2.2,4.7l-5.3,0l0,0.7l-1.7,-1.4l-3.7,-2.1l-0.8,-0.6l-0.1,1.4l-1.8,1.5l-2.9,0l-5.5,-1.4l-4.1,-4.8l-2.1,-4.4l2.4,-3.2l1.1,1l3,0.4l2.2,2.6l0.8,2.9l2.2,2.9l2.4,0.4l1.6,-1.4l-1.2,-4.6l-0.2,-6l0.4,0.4l1.3,1.4l0.6,-1l3,-1.2l-0.8,-16.5l0.8,-10.6l1.8,-6.5l5.2,-9.5l3.1,-7.7l5.3,-1.7l2,0.7z" fill="#b51b1b" id="MK803" stroke="#ffff7c"/>
   <path d="m393.8,219.5l-0.1,-2.1l0.3,-1.9l0.1,-3.7l0.1,-1.4l0.8,0.6l3.7,2.1l1.7,1.4l0,2.3l-0.5,4.6l-0.8,-0.5l-1.4,0.5l-1,-2.2l-1.9,0l-1,0.3z" fill="#b51b1b" id="MK815" stroke="#ffff7c"/>
   <path d="m394,234.6l-3.8,-3.8l-2.6,-2.6l1,-5.4l2.3,-2.8l2.9,-0.5l1,-0.3l1.9,0l1,2.2l-0.4,0.1l-1.7,4.1l0.8,1l-1.7,2l-0.7,6z" fill="#b51b1b" id="MK814" stroke="#ffff7c"/>
   <path d="m456,477.4l-0.2,0l-3.9,1.8l-2.8,3l-2.1,5.9l-0.7,5.5l-3.3,1.2l-4.5,1.6l-4.2,5.4l-3.6,1.8l-11.7,0.5l-3.2,1.1l-5.1,1.4l-4.3,0l-3,0l-1.7,1.6l-2.8,2.4l-2.1,3l-1.6,2.8l-2.4,0.4l-1.8,1.7l-2,1.6l-1.2,1.1l-0.7,-1.1l-4,-2.6l-2.4,-0.2l-2.1,0l-3.1,0.5l-2.7,1.1l-2.7,0.3l-1.9,0l-1.8,-0.7l-1,-2.1l-0.6,-3.5l-0.5,-3.7l-0.7,-2.8l-0.3,-1.6l-2.3,-1l-1.6,0.7l-2.6,2.4l-2.2,0.2l-1.8,1.4l-0.4,1.1l-2.8,-1.6l-1.2,-2.5l-4.2,-4.4l-4.7,-5.6l-4,-2.1l0.2,-3.3l1.4,-1.8l3.4,-0.2l3.2,0.2l5.2,0.2l0.4,-3.5l0,-1.6l-1.3,-2.8l-2.1,-1.4l-5.5,-6.5l-4.2,-5.8l-1.7,-3.1l-0.4,-0.6l0,-2.8l0.5,-1.2l2.6,-1.6l2.5,0l1.9,-1.2l1.4,-3.2l1.5,-1.9l4.1,-0.7l3.7,1.4l1.9,1.4l2.8,1.4l1.7,0.5l-0.1,-5.1l-0.2,-7.2l1,-3.3l1.9,-3.5l2.1,-2.6l3.2,-3.7l2.6,-3.2l2.2,-5.6l0.4,-8.6l0.5,-5.8l1.8,0l1,0l3,0l4.7,1.3l3.8,1.4l5.8,2.4l2.9,3.2l1.1,4l1.7,3.2l1.9,1.7l3.9,1.4l1.7,4.4l0.9,5.6l0,6.5l0.5,4.6l2.2,4.2l2.5,2.8l3.7,1.9l3.4,0l3.3,0l2.3,-0.3l2.1,-1.6l2.3,-0.2l2.4,0.7l0.9,2.1l1,3.5l0.7,3.5l1.2,1.8l2.3,1.2l3.3,0.7l5.2,1.4l4.2,1.1l3.3,2.8l2.3,3.5l0.4,1.9z" fill="#b51b1b" id="MK503" stroke="#ffff7c"/>
   <path d="m387.8,521.2l-1.6,1.4l-4,3.5l-0.2,1.4l0.2,3l1.5,1.2l0.2,2.5l1.4,1.9l3.7,0.2l3.4,0.5l1.6,1.1l0,4.2l-1.4,3.3l-1.7,2.3l-0.4,4.1l-1.4,7.2l-2.2,2.6l-2.5,2.5l-2.6,3.5l-3,2.1l-5,0.2l-2.2,0.6l-1.5,-0.6l-1.8,-1.4l-2.7,-4.1l-3.7,-1.9l-0.9,0.1l-0.2,-2.4l-2.4,-0.2l-1.9,-1l0.7,-2.7l1.2,-1.4l0.9,-2.8l0.8,-3l0.5,-4.9l-0.5,-4.9l-2.2,-3.9l-3,-3l-1.4,-1.9l-1.7,-3.5l0,-4.4l0.2,-6.9l0,-4.9l0.4,-1.2l0.4,-1.1l1.8,-1.4l2.2,-0.2l2.6,-2.4l1.6,-0.7l2.3,1l0.3,1.6l0.7,2.8l0.5,3.7l0.6,3.5l1,2.1l1.8,0.7l1.9,0l2.7,-0.3l2.7,-1.1l3.1,-0.5l2.1,0l2.4,0.2l4,2.6l0.7,1.1z" fill="#b51b1b" id="MK504" stroke="#ffff7c"/>
   <path d="m454.8,613.6l-0.2,0.1l-1.4,7.1l-4.3,6l-5.2,6.2l-5.5,7.1l-4.1,2.5l-7.6,-1.1l-8.4,-1.1l-4.8,-1.7l-5.3,-2.3l-3.7,0l-5.5,4l-3.2,4.2l-0.8,2.2l-0.9,-0.7l-2.9,-0.7l-2.3,0l-1.8,0.4l-2.6,1.9l-3.6,2.3l-1.9,0l-2.8,-0.7l-2.8,-1.6l-1.8,-1.9l-0.8,-2.5l0.2,-4.6l0,-4.4l0.3,-3.5l-0.2,-3l-0.7,-3.2l-2,-2.1l-4.8,-1.7l-3.5,-2.3l-3.1,-3.7l-1.9,-4.1l-1.2,-4.2l0,-4.6l1.7,-2.8l1.4,-3.2l0,-4l-2.6,-3.9l-0.5,-0.6l-1.9,-2l-2,-2.3l0.4,-4.4l2.5,-3.7l2.6,-8.1l1.4,-3.2l2.7,-0.9l1.6,-0.2l0.9,-0.1l3.7,1.9l2.7,4.1l1.8,1.4l1.5,0.6l-0.4,0.1l0.4,3l1.7,2.6l5.4,1.1l3.3,0.3l4.5,2.7l4.2,6.8l4.4,3.4l1.3,3.7l2,2.1l3.9,0.3l3.8,0.2l2.3,0.9l2.4,4.4l6.8,3.7l3.8,0.2l4,0l2.7,-1.8l1.9,-1.4l2.6,0l6.4,5.1l4.9,1.8l5.4,1l4.2,1.4l1.3,1.5z" fill="#b51b1b" id="MK506" stroke="#ffff7c"/>
   <path d="m529.4,471.2l-0.3,-0.5l-1.7,-1.9l-4.1,-0.7l-2.2,2.1l-2,3.9l-3.1,3.7l0,0.6l-1.9,-1.5l-1.8,-3.5l-1.2,-2.8l-3.3,-1.8l-3.4,-1.4l-2.7,-1.4l-1.4,-2.3l-1.9,-0.7l-2.4,0l-2.8,1.3l-1.7,1.4l-3.7,0.5l-2.3,0l-3.3,0.2l-1,0.7l-1.1,1.9l-0.1,3.9l-0.4,5.4l-2.6,5.6l-1.9,0.9l-3.3,0.9l-3.3,-0.2l-0.7,-2.6l-1.9,-3l-2.7,-1.8l-2.6,-0.5l-3.1,-0.2l-1.5,0l-0.4,-1.9l-2.3,-3.5l-3.3,-2.8l-4.2,-1.1l-5.2,-1.4l-3.3,-0.7l-2.3,-1.2l-1.2,-1.8l-0.7,-3.5l-1,-3.5l-0.9,-2.1l-2.4,-0.7l-2.3,0.2l-2.1,1.6l-2.3,0.3l-3.3,0l-3.4,0l-3.7,-1.9l-2.5,-2.8l-2.2,-4.2l-0.5,-4.6l0,-6.5l-0.9,-5.6l-1.7,-4.4l-3.9,-1.4l-1.9,-1.7l-1.7,-3.2l-1.1,-4l-2.9,-3.2l-5.8,-2.4l-3.8,-1.4l-4.7,-1.3l-3,0l0.2,-1.5l0.3,-5.7l0,-4.6l-1.5,-3.8l0.3,-3.1l1.2,-1.5l2,-1.9l3.1,-3.9l2.3,-4.2l-0.5,-3.3l1.7,-5.9l1.1,-6.5l1.7,-2.7l4,-1.5l2.6,-2.7l2,-4.6l2,-3.8l2.3,-4.6l3.7,-3.1l6.9,-1.9l3.1,-1.2l2.1,2.1l4.9,-0.3l6.4,-0.2l7.4,-0.2l7.7,-0.2l2.6,0.8l-0.3,1.1l2.2,3.1l3.1,6.3l2.5,5.4l1.8,1.4l2.1,0l1.5,-1l1.2,-1.3l1.9,0l2,0.4l2.7,1.5l2.9,1.2l4.3,0.9l3.9,0.2l3.8,1.9l2.1,5.2l1.3,7.9l2.9,4.5l0.9,4l-0.1,2.7l0.6,2.7l1.9,2.9l1.9,0.2l1.8,-0.8l1.1,-0.9l2.2,-2l1,-1.3l1.8,-0.4l1.2,1.9l0.2,3.1l0.1,5l0.6,3.9l3.1,3.5l8.1,2.1l3.5,0.4l-0.1,0.7l-0.3,5l-0.2,3.5l2.2,3.1l4.3,3.3l4.2,2.7l1.4,2.9l0,4.6l-1.6,3.5l-2.4,2.5l-2.4,2.9l-0.6,4.3l-0.1,5l1.1,4.1l3.7,2.3l4.2,2.7l1.7,0.9l-1.1,3.9l-0.5,2.9l-0.6,6.1l0,1.9z" fill="#b51b1b" id="MK109" stroke="#ffff7c"/>
   <path d="m591,449.2l-1.1,1.2l-1.1,3.9l0.4,6.3l-0.9,7.7l-3.7,2.4l-2.5,1.5l-1.5,1.9l-0.1,3.7l-1.8,0.7l-2,-0.7l-2.9,-2.5l-3,-1.4l-2.3,-1l-3.1,0l-1.6,1.7l-0.8,6.1l-2.5,1.9l-5.5,0.3l-5.4,0l-2.4,0.7l-2.7,0l-6.3,-0.7l-3.2,-3.4l-3.6,-5.1l-2,-3.2l0,-1.9l0.6,-6.1l0.5,-2.9l1.1,-3.9l0.2,-0.7l2,-1.9l2,-1.5l3.8,-0.5l2,0l1.7,-1.4l1,-1.7l0,-2.5l-0.7,-4.3l-0.5,-1.2l0,-2.2l0,-2.2l1,-1l2.6,-0.2l2.9,1l1.8,1.7l5.3,2.6l5.4,0l2,-2.4l1.3,-3.6l2.2,-2.7l2.2,-1.7l4.1,1l2.2,1.9l2.6,0l2.5,0l0.2,-1.9l0.7,-4.9l3.1,-1.9l2.9,0l2.8,1.6l-0.1,0.1l0,4.8l0.6,10l-0.4,8.5z" fill="#b51b1b" id="MK107" stroke="#ffff7c"/>
   <path d="m626.8,521.9l-2,-1.5l-3.5,-2l-0.1,-2.1l0.1,-2.9l-0.7,-3.9l-3.1,-5.3l-1.6,-7.3l-0.2,-8.7l0.2,-8l-1.6,-7.3l-1.1,-5.1l-0.9,-5.5l0.1,-9.7l-1.8,-2.7l-3.6,-1.5l-2.9,0.5l-3.6,2.2l-3.2,0.2l-3.8,0l-2.5,-2.1l0.4,-8.5l-0.6,-10l0,-4.8l0.1,-0.1l1,-0.9l2.2,0l1.6,1.9l0,5.4l0.8,3.6l1.1,1.8l2.1,0l2.4,-0.2l0.9,-1.6l1.3,-3.5l1.5,-3.7l0,-2.3l-1.9,-2.1l-1.2,-0.6l-0.4,-1.4l0.1,-1.3l0.9,-2l2.2,-3.3l1.2,-2.7l1.4,-3.3l0,-2.5l-0.4,-2.1l-2.2,-1.8l-1.9,0l-2.9,1l-2.8,1.3l-2.6,1.6l-2.6,0l-2.3,-1.4l-1.2,-2.1l0,-2.5l0.5,-2.7l1.5,-3.6l2.5,-2.7l2.2,-1.1l2,-4.5l1.9,-2.7l1,-3l-0.2,-2.9l1,0.8l3.1,2.7l3.4,0.2l3.5,1.4l1.3,1.8l2.6,4.6l2.9,3.3l1.8,0l1.7,-0.8l1.2,-1.5l1.1,-3.1l1.8,-3.3l2.4,-0.4l1.8,1.7l1.3,2.2l1.3,3.3l1.3,5.4l0.5,5.3l1.5,4.4l2.2,1.8l2.9,-0.8l5,0.4l4.6,0.2l5.7,1.9l1,3.1l0.2,6.8l2.7,1.8l3.9,1.7l3.7,2.4l5.3,3.8l6.3,1.8l6.7,-0.2l2.7,-0.6l2.3,2.9l3.9,4.3l3,4.9l2.5,3.9l1.7,3.8l0.2,4.7l0.5,1.2l-1.8,2.1l-3.8,3.6l-2.7,1.3l-1.6,1.4l-1,2.1l-0.9,2.6l-1.3,2l-1.3,1.2l-1.8,0l-3.2,-1l-2.4,-1.4l-3.1,-1.5l-3.6,-2.1l-1.7,-1.5l-2,-2.1l-2.1,-0.7l-3.2,0l-2.5,1.7l-3.8,4.7l-3.6,2.7l-1.6,2.8l-1.8,6.3l-1.3,5.7l-1.5,3.4l-1.3,2.9l-1.7,1.4l-2.1,1.7l-1.9,0.2l-1.2,1.7l-0.4,1.5l0.9,2.1l2.2,3.1l2.3,2.9l1,2.6l0,2l-0.5,2.7l-0.8,2.4l-0.6,3l-1,1.8l-1.9,0.6l-3.4,0.6l-5.4,0l-4.8,-0.5l-2.1,0.2z" fill="#b51b1b" id="MK106" stroke="#ffff7c"/>
   <path d="m423.5,164.6l3.1,5.1l5.4,6.7l2.1,3.2l-0.8,1.9l0,3.5l0.3,2l2,3l1.3,2l0.2,2.6l0.7,3.7l0.3,5l-0.2,2.1l-2.5,2.4l-1.6,2.7l-0.3,4.5l-0.2,3.7l0.5,0.5l-1.5,2.5l-2,3.1l0.2,1.7l0.8,1.5l3.4,2.2l2.4,0.7l2.9,2.2l2.8,1.9l2.4,1.8l1.8,3.3l1.5,3l0.1,3.8l0.2,4l0.2,0.5l-0.7,1.1l-2.9,3.1l-0.3,0.4l-2.2,-4.2l-2,-3.7l-1.7,-0.8l-0.4,0.2l-2.9,-4.8l-6.1,-4.7l-9.7,-4.7l-7.4,-5.9l-5.3,-2.9l-3.5,-0.6l-1.7,-1.2l-2.3,-1.3l0.5,-4.6l0,-2.3l0,-0.7l5.3,0l2.2,-4.7l0,-6.5l0,-4.7l0,-5.3l0.8,-9.4l4,-7.7l6.5,-8.3l4.3,-2.6z" fill="#b51b1b" id="MK804" stroke="#ffff7c"/>
   <path d="m353.7,587.4l-2.2,-0.2l-2.5,-1.8l-2.1,-2.5l-1.7,0.5l0.2,-4.8l1,-3.2l0,-5.8l0,-4l-2.1,-3.6l-4,-3.6l-1.7,-5.8l-1,-5.8l-4.4,-5.4l-3.3,-1.3l-3.4,1.8l-3.7,0.4l-2.7,0l-0.6,-1.8l0,-2.7l0.3,-4.5l0,-6.2l0,-5.4l-2.3,-3.6l-4.1,0l-5.4,-0.9l-5.4,0.9l0,-3.1l0,-3.6l-2.6,-2.2l-5.8,-2.7l-2.5,-1.4l-0.4,-2l-2.4,-5.6l0.8,-1.9l0.7,-1.4l2.6,-1.7l3.3,-1.6l5.5,-2l4.3,-1.5l5.1,-3l0.4,-0.2l4.7,-2.4l6.5,-2l4.9,-2l1.3,-3.8l0,-4.3l0,-2.8l0.8,-3l3.2,-0.3l1.5,0.2l1.7,3.1l4.2,5.8l5.5,6.5l2.1,1.4l1.3,2.8l0,1.6l-0.4,3.5l-5.2,-0.2l-3.2,-0.2l-3.4,0.2l-1.4,1.8l-0.2,3.3l4,2.1l4.7,5.6l4.2,4.4l1.2,2.5l2.8,1.6l-0.4,1.2l0,4.9l-0.2,6.9l0,4.4l1.7,3.5l1.4,1.9l3,3l2.2,3.9l0.5,4.9l-0.5,4.9l-0.8,3l-0.9,2.8l-1.2,1.4l-0.7,2.7l1.9,1l2.4,0.2l0.2,2.4l-1.6,0.2l-2.7,0.9l-1.4,3.2l-2.6,8.1l-2.5,3.7l-0.4,4.4l2,2.3l1.9,2z" fill="#b51b1b" id="MK505" stroke="#ffff7c"/>
   <path d="m256.4,586.7l-0.5,-2.3l-2.3,-3.9l-1.1,-1.8l-2.6,-5.7l0,-5.5l-4.1,-2.3l-2.4,-3.1l-1.9,-5.2l-1.5,-4.3l-3.4,-2l-3.5,-1.7l-3.4,-2.9l-2.6,-2.8l-0.9,-3.8l0,-4.8l0.5,-0.9l2.1,-4.3l8,-6l8.4,-3.7l9.9,0.3l7.1,0l10.5,-0.5l5.7,-3.6l5.4,-5.4l1,-3.6l5.4,-2.7l1.5,0.9l2.5,1.4l5.8,2.7l2.6,2.2l0,3.6l0,3.1l5.4,-0.9l5.4,0.9l4.1,0l2.3,3.6l0,5.4l0,6.2l-0.3,4.5l0,2.7l0.6,1.8l2.7,0l3.7,-0.4l3.4,-1.8l3.3,1.3l4.4,5.4l1,5.8l1.7,5.8l4,3.6l2.1,3.6l0,4l0,5.8l-1,3.2l-0.2,4.8l-0.7,0.2l-3.3,2.5l-3.4,6.1l-6.5,5l-4.1,2.2l-3.2,0.3l-1.8,3.6l-2.8,4.3l-4.5,0.3l-5.4,3.3l-4,5.3l-3.8,1.8l-4.6,2.1l-3.8,0.4l-4.5,0.7l-3.3,1.8l-4.8,2.1l-3.9,1.8l-1.1,-1.6l-3.6,-5.7l-2,-7.5l0,-6l-1.7,-9.7l-1.5,-3.7l-3.4,-0.3l-3.2,0l-2.4,-2.9l-1.1,-4l-0.4,0.9z" fill="#b51b1b" id="MK502" stroke="#ffff7c"/>
   <path d="m397.7,221.4l1.4,-0.5l0.8,0.5l2.3,1.3l1.7,1.2l3.5,0.6l5.3,2.9l7.4,5.9l9.7,4.7l6.1,4.7l2.9,4.8l-2.4,1.5l-2.4,2.2l-1.6,0.7l-3,-4.5l-5.3,-4.1l-4.9,-1.2l-7.4,-2.9l-3.9,-3l-4,-5.3l-4.4,-0.6l-3.1,-3.7l-0.8,-1l1.7,-4.1l0.4,-0.1z" fill="#b51b1b" id="MK801" stroke="#ffff7c"/>
   <path d="m382.5,373.2l-0.4,1.4l-3.1,-3l-4,-8.4l0,-4.8l0,-11.4l-3.2,-3.5l-4,0l-2.6,-0.9l-1,-0.3l-1.8,-5.4l0,-5.4l1.4,-7.2l2.7,-4.8l-1.6,-4.6l-3.2,-1.2l-1.6,-1.9l0.4,-3.6l1.4,-1.6l2.3,0l1.4,-0.9l0.7,-5.2l2,-9.2l1.4,-4l3.7,-2.8l3.2,0l0.4,-2.5l-1.8,-1.8l-2.8,-0.3l-4.8,-1.6l-4.3,0l-1.6,-4.3l0,-6.1l2.5,-2.8l5.5,-1.5l4.8,0l3.7,0.9l5.5,2.8l8.9,-0.6l5.7,-0.3l1.2,-4l1.3,-8l0.2,-5.7l0.3,0.5l0.9,0l3,0l3.1,-1.8l3.5,0l3.3,3.8l0,5.5l0,4.8l0.8,2.2l4.3,1.7l2.7,-1.3l1.4,-2.4l0.7,-2.8l1,-2.8l1.7,-2l1.9,-0.6l2.4,-1.4l0.4,-0.2l1.6,-0.7l2.4,-2.2l2.4,-1.5l0.4,-0.2l1.7,0.8l2,3.7l2.2,4.2l-1,1.2l-0.8,2.9l0.8,2.6l2.1,0.5l3.7,0l0.3,0l-1.5,2.7l-4.5,1.5l-3.2,2.1l-3.7,3.1l-4.7,2.5l-0.9,6.7l-2.3,4.6l-2.7,2.2l-1.7,2.5l-0.2,4.4l-0.6,3l-1.6,1.8l-3.2,0.2l-2,-0.4l-0.9,-1.2l-0.2,-3.4l-0.6,-1.8l-2.7,-0.3l-2.9,3.4l-2.4,5.2l0.5,6l0,4l1.3,3.3l4.3,5.6l1.4,3.4l-0.9,3.5l-1,2.7l0,4l0.3,0.2l-3.1,1.2l-6.9,1.9l-3.7,3.1l-2.3,4.6l-2,3.8l-2,4.6l-2.6,2.7l-4,1.5l-1.7,2.7l-1.1,6.5l-1.7,5.9z" fill="#b51b1b" id="MK813" stroke="#ffff7c"/>
   <path d="m401,248.7l-1.5,-2.4l0,-3.6l0,-2.3l-2.2,-1.2l-3,0l-0.5,-3l0.2,-1.6l0.7,-6l1.7,-2l3.1,3.7l4.4,0.6l4,5.3l3.9,3l7.4,2.9l4.9,1.2l5.3,4.1l3,4.5l-0.4,0.2l-2.4,1.4l-1.9,0.6l-1.7,2l-1,2.8l-0.7,2.8l-1.4,2.4l-2.7,1.3l-4.3,-1.7l-0.8,-2.2l0,-4.8l0,-5.5l-3.3,-3.8l-3.5,0l-3.1,1.8l-3,0l-0.9,0l-0.3,-0.5z" fill="#b51b1b" id="MK809" stroke="#ffff7c"/>
   <path d="m687.6,237.8l-1.6,-1l-1.3,0.2l-2.4,1.8l-2.7,5.2l-0.9,3.8l-0.6,4.1l-2,3.4l-3.1,1.6l-2.5,2l-2.6,3l-1.9,0l-1.5,0.8l-1,2.4l0.4,3.4l4.5,6.6l7.9,9.9l-1.5,1.7l-3.4,0.4l-5.1,0l-4.2,0.2l-3.7,-1.6l-1.2,-3.8l0,-2.2l-1.1,-2l-2.2,-0.6l-4.2,2.2l-0.7,0.7l-0.3,-0.6l-0.9,-1.6l-1.4,-0.9l-0.9,0.3l-1.1,0.6l-1.2,0l-2,-0.6l-2.3,-1.2l-2.8,-0.3l-2.5,0l-1.9,0.5l0,-1.1l-2.4,-2.7l-1,-0.8l-1.2,-1.9l0.2,-1l1.8,-1.4l1,-3l0.2,-3.2l-0.2,-1.9l-1.4,-1.1l-3.2,-0.8l-2.2,-2.1l-4,-7.3l-3.1,-6.5l-3.6,-2.2l-6,-4.6l-4.8,-4.6l-1,-3.5l0.8,-5.1l1.8,-3.8l1.8,-4.3l0.4,-0.2l1.2,-0.6l1.2,0l2.2,1l3.4,1.9l2.5,1.9l1.6,0.6l1.6,-0.3l0.8,-1.9l0.8,-3.5l1.4,-3.8l2.4,-3.2l2,-1.1l3,0.3l4.4,0l4.7,-0.9l3.3,-1.9l8.6,-3.2l3.8,-1.6l3.5,2.4l1.5,3.5l1.9,1.4l4.2,0l2,-0.6l1.8,-1.9l1.8,-0.8l1.8,0.3l1.8,2.2l2,3.2l2.8,1.1l1.7,0l2.4,-3.5l0,-6.2l0,-8.2l1.4,-1l2.2,0l4.2,-0.3l5.8,0l6.4,0.5l4.3,2.5l5.2,4.6l2.9,4.7l-0.5,2l-1.3,4.5l-1.2,5.5l-1.6,0.4l-2.7,1.6l-2.7,1.8l-2.2,3.7l-1.6,3.8l-5.1,4.1l-4.4,4.5l-3.5,2.6l-1.7,2.1l0,0.5z" fill="#b51b1b" id="MK209" stroke="#ffff7c"/>
   <path d="m676.3,285l-7.9,-9.9l-4.5,-6.6l-0.4,-3.4l1,-2.4l1.5,-0.8l1.9,0l2.6,-3l2.5,-2l3.1,-1.6l2,-3.4l0.6,-4.1l0.9,-3.8l2.7,-5.2l2.4,-1.8l1.3,-0.2l1.6,1l0.1,0.3l1.5,4.2l4.5,5.7l5.4,3.7l7.3,-0.2l4,-0.2l2.5,0l0.8,1.2l0.3,2.2l-0.3,1.3l-1.1,0.8l-0.9,2.2l0,3.3l0.3,7.9l1.4,2.8l0.8,1.7l0.6,2.2l1.1,4.9l2.1,1l1.6,0l1.9,2.6l1.2,0.7l0.4,0l0.1,6.3l0.9,4l3.5,3.3l3.9,5.1l2.2,3.9l1.5,3.4l0.1,0l-1.1,1.7l-3,0l-4.5,-0.6l-3.4,-3.4l-4.3,-4.4l-4.1,-0.2l-4.1,0.6l-6.7,-1.2l-7.2,-1.2l-9.3,-6.8l-7.7,-7.3l-3.6,-4.3z" fill="#b51b1b" id="MK210" stroke="#ffff7c"/>
   <path d="m434.1,179.6l1.8,2.7l2.4,2.7l2.4,2.4l2.8,5.1l2.6,2.2l5.7,1.3l2.1,-0.8l2.1,-8.9l0.3,-1.5l3.2,0l4.2,2l2.8,1.9l0.2,4.6l0.2,0.8l-2,1.8l-4.6,4.9l-3,4.3l-4.2,5.4l-2.3,2.5l-3.2,0.3l-3.5,1l-3.9,2.1l-2.2,1.3l-1.7,2.1l-1.7,0.2l-0.8,-0.8l-0.5,-0.5l0.2,-3.7l0.3,-4.5l1.6,-2.7l2.5,-2.4l0.2,-2.1l-0.3,-5l-0.7,-3.7l-0.2,-2.6l-1.3,-2l-2,-3l-0.3,-2l0,-3.5l0.8,-1.9z" fill="#b51b1b" id="MK802" stroke="#ffff7c"/>
   <path d="m444.7,336.7l-2.6,-0.8l-7.7,0.2l-7.4,0.2l-6.4,0.2l-4.9,0.3l-2.1,-2.1l-0.3,-0.2l0,-4l1,-2.7l0.9,-3.5l-1.4,-3.4l-4.3,-5.6l-1.3,-3.3l0,-4l-0.5,-6l2.4,-5.2l2.9,-3.4l2.7,0.3l0.6,1.8l0.2,3.4l0.9,1.2l2,0.4l3.2,-0.2l1.6,-1.8l0.6,-3l0.2,-4.4l1.7,-2.5l2.7,-2.2l2.3,-4.6l0.9,-6.7l4.7,-2.5l3.7,-3.1l3.2,-2.1l4.5,-1.5l1.5,-2.7l2,0.3l3.1,0l3.3,1l4.6,2.3l3.3,-0.3l1.7,2.5l0,6.5l-0.3,11.2l-0.3,6.5l-1.1,2.1l-1.1,1.2l-0.7,1.5l0,0.9l-1.7,0.6l0,3.1l0,3.8l0,2.3l1.4,2l1.7,1.1l0,2.7l0,5.8l-2.1,3.1l-3.2,5.2l-1.8,3.6l-2.2,1.4l-5.6,2.1l-6.4,0.6l-0.1,0.4z" fill="#b51b1b" id="MK806" stroke="#ffff7c"/>
   <path d="m269.4,466.4l0.1,0l3.4,-1l1.9,0l3.4,-0.3l3.3,-1.2l2.6,-0.8l2.3,-1.2l2.8,-2.1l4.4,0l1.7,1.3l0.2,1.3l0,3l0,3l0.4,1.8l1.3,2.3l2.1,2.3l4.1,1.7l3.7,0.5l3.4,2.1l1.1,3.7l0,1.4l-0.4,0.2l-5.1,3l-4.3,1.5l-5.5,2l-3.3,1.6l-2.6,1.7l-0.7,1.4l-1.8,-1.4l-5.5,-2.3l-4.7,-2.2l-2.6,-4.7l-1.2,-2.5l-2.8,0.3l-3.1,1.6l-0.3,0l-2.3,0l-4.3,1.2l-2.3,-3.8l0,-3.4l-0.8,-4.1l-1.6,-4.2l0.2,-3.1l0.9,-1.9l5.5,-0.7l6.4,2z" fill="#b51b1b" id="MK311" stroke="#ffff7c"/>
   <path d="m485.8,220.9l1.9,2.3l5.2,2.8l3.5,0.7l3.5,2.7l1.3,3.8l2.1,1l2.4,0l2.7,-1.2l2,-1.6l4.1,-0.3l5.1,0.1l3.3,2.4l2.8,4l3.5,2.5l1.3,0.7l-1.3,2.7l-2,6.5l-0.1,5.3l-4,2.9l-3,2.3l-5.2,4l-4.8,1.8l-4.5,-0.2l-2,1.1l-0.3,1.6l0.4,4l0.5,3.5l0,4.6l-0.5,4l-0.8,4.5l-1.7,4.8l-1.2,5l-1.1,4.8l-0.9,1.9l-1.9,0.6l-4.2,-1.5l-1.7,-2.9l-2.1,-2.7l-2.5,0l-0.2,1.7l-1.5,1.9l-2,1.8l-1.3,2.5l-2,0l-0.3,-1l0.8,-1.7l-0.2,-3.5l-0.9,-0.9l-1.4,0.7l-1.7,1.6l-2.7,-0.2l-3.8,-0.6l-3.6,-1.6l-0.1,-1.2l0,-0.9l0.7,-1.5l1.1,-1.2l1.1,-2.1l0.3,-6.5l0.3,-11.2l0,-6.5l-1.7,-2.5l-3.3,0.3l-4.6,-2.3l-3.3,-1l-3.1,0l-2,-0.3l-0.3,0l-3.7,0l-2.1,-0.5l-0.8,-2.6l0.8,-2.9l1,-1.2l0.3,-0.4l2.9,-3.1l0.7,-1.1l0.9,-1.5l2.7,-0.8l3.9,-2.6l4.2,-2.1l2.3,-3.3l3.2,0l2.9,2.6l3.1,1.5l2.9,-0.2l3.7,-0.3l2.5,-0.3l1.1,-2.3l-0.7,-4.2l-2.2,-2l0,-1.8l0.5,-2.1l1.2,-2.3l1.9,-4.2l1.8,-4.3l0.9,-0.3z" fill="#b51b1b" id="MK810" stroke="#ffff7c"/>
   <path d="m543.3,291.8l5,0.3l3.6,1.4l4.6,6.4l3.4,4.1l5,2.1l4,0.8l3.1,2.5l5.6,7.5l5.8,7.3l7,7.3l6.3,5.4l5,3.3l-1,0.4l-1.3,0.4l0,1.5l1.3,1.4l0,1.9l-0.6,1.2l-2.5,0.2l-1.1,0l-1.5,0.4l-0.5,2.3l-0.8,1.8l-1.3,0.4l-2,-1.6l-1.2,-1.9l-2.6,-2.6l-1.9,-1.1l-1.9,0l-2.2,1.1l-1.4,3.3l-2,2.2l-1.5,1.9l-0.7,2.7l-0.6,3.4l1,1.9l2.8,2.5l2.7,2.2l1.6,1.3l0,2.7l0.2,2.6l0.3,0.3l-1.3,2.7l-3.4,3.3l-3.9,2.5l-2.8,0l-3.6,-0.4l-4.5,-1.2l-2.2,-1.3l-1.2,-2.9l-0.8,-4.8l-0.7,-3.7l0,-4.8l-0.2,-4.3l-1.7,-5.4l-0.5,-4.2l-0.9,-1.7l-2.2,-0.6l-2.6,0l-1.4,0l-1.1,0.9l-0.3,2.3l0,0.8l-1.7,-2.5l-2.6,-5.4l-1.6,-2.7l-2.8,-1.1l-2.2,0l-1.8,0l-1.1,-1.6l0.5,-2.7l0.4,-1.3l1.6,-3.3l2.2,-4.6l0.7,-2.4l0,-3.4l-1.8,-2.7l-1.8,-1.9l-2.3,-3.1l-1.2,-1.6l-0.6,-1.9l1.1,-1.9l2.1,-2.3l2.2,-1.9l3.3,-3.9l1.8,-1.9l1.3,-2l-0.1,-2.3z" fill="#b51b1b" id="MK105" stroke="#ffff7c"/>
   <path d="m530.5,240.8l0.5,-1l2.7,-2l1.1,-2.6l2.9,-2.3l1.8,-2.4l0,-3.5l0.8,-3.2l1.9,-2.6l5,-4.1l2.6,-2.6l4.3,-0.9l5.3,-0.2l4.8,1.3l3.7,4.1l2.3,4.5l2.1,2.2l3.8,-0.2l5.2,-2.8l6.4,-2.4l3.4,-2.6l0.8,-3.7l-0.2,-0.5l1.9,0l2.7,0l2.1,0l2.2,-0.4l2.8,-0.6l2.1,0.4l0.1,0.4l-0.4,0.2l-1.8,4.3l-1.8,3.8l-0.8,5.1l1,3.5l4.8,4.6l6,4.6l3.6,2.2l3.1,6.5l4,7.3l2.2,2.1l3.2,0.8l1.4,1.1l0.2,1.9l-0.2,3.2l-1,3l-1.8,1.4l-0.2,1l1.2,1.9l1,0.8l2.4,2.7l0,1.1l0,1.9l-1,1.9l-1.8,1.3l-2.2,0.8l-0.6,1.9l0.4,3.5l1.4,1.9l1,2.7l1.6,2.4l0.6,2.7l-0.4,3l-2.2,1.4l-2.1,1.3l-2.6,4.6l-2.8,3.8l-2.8,3.7l-2.2,3.8l-2.1,0.5l-2.8,0.8l-1.6,0.6l-1.2,1.3l-0.2,1.9l1.6,3.3l1.8,2.4l1,3.5l-0.2,3.2l-1.8,0.6l-0.8,1.6l-0.4,1.6l1.2,1.3l1.8,0.8l0.8,3.5l-1.2,1.4l-2,0l-2.4,-1.1l-2,-3l-3.2,-2.4l-0.6,-0.4l-5,-3.3l-6.3,-5.4l-7,-7.3l-5.8,-7.3l-5.6,-7.5l-3.1,-2.5l-4,-0.8l-5,-2.1l-3.4,-4.1l-4.6,-6.4l-3.6,-1.4l-5,-0.3l-3.2,-3.7l-4.6,-6l-4.6,-5.9l-1.6,-5.6l-2.3,-9.2l0,-5.2l0.1,-0.9l0.1,-5.3l2,-6.5l1.3,-2.7z" fill="#b51b1b" id="MK108" stroke="#ffff7c"/>
   <path d="m531.6,456.4l-1.7,-0.9l-4.2,-2.7l-3.7,-2.3l-1.1,-4.1l0.1,-5l0.6,-4.3l2.4,-2.9l2.4,-2.5l1.6,-3.5l0,-4.6l-1.4,-2.9l-4.2,-2.7l-4.3,-3.3l-2.2,-3.1l0.2,-3.5l0.3,-5l0.1,-0.7l0.6,-4.5l0.5,-2.9l1.1,-1.6l2.5,-0.3l2.9,0l3.9,-0.6l3.4,-5.4l1.9,-4.5l1.7,-4.6l2.3,-4.8l5.9,-6l3.1,-3.9l1.4,-6.9l0,-3.9l0,-2.3l0,-0.8l0.3,-2.3l1.1,-0.9l1.4,0l2.6,0l2.2,0.6l0.9,1.7l0.5,4.2l1.7,5.4l0.2,4.3l0,4.8l0.7,3.7l0.8,4.8l1.2,2.9l2.2,1.3l4.5,1.2l3.6,0.4l2.8,0l3.9,-2.5l3.4,-3.3l1.3,-2.7l1.1,0.8l6.1,-0.5l3.7,0.4l5.1,2.9l1.6,1.3l0.2,2.9l-1,3l-1.9,2.7l-2,4.5l-2.2,1.1l-2.5,2.7l-1.5,3.6l-0.5,2.7l0,2.5l1.2,2.1l2.3,1.4l2.6,0l2.6,-1.6l2.8,-1.3l2.9,-1l1.9,0l2.2,1.8l0.4,2.1l0,2.5l-1.4,3.3l-1.2,2.7l-2.2,3.3l-0.9,2l-0.1,1.3l0.4,1.4l1.2,0.6l1.9,2.1l0,2.3l-1.5,3.7l-1.3,3.5l-0.9,1.6l-2.4,0.2l-2.1,0l-1.1,-1.8l-0.8,-3.6l0,-5.4l-1.6,-1.9l-2.2,0l-1,0.9l-2.8,-1.6l-2.9,0l-3.1,1.9l-0.7,4.9l-0.2,1.9l-2.5,0l-2.6,0l-2.2,-1.9l-4.1,-1l-2.2,1.7l-2.2,2.7l-1.3,3.6l-2,2.4l-5.4,0l-5.3,-2.6l-1.8,-1.7l-2.9,-1l-2.6,0.2l-1,1l0,2.2l0,2.2l0.5,1.2l0.7,4.3l0,2.5l-1,1.7l-1.7,1.4l-2,0l-3.8,0.5l-2,1.5l-2,1.9l-0.2,0.7z" fill="#b51b1b" id="MK102" stroke="#ffff7c"/>
   <path d="m668.9,155.7l-0.3,1.8l1.8,2.2l3.8,0l5.3,0.3l5.4,-0.3l6.8,-1.4l3,-1l2.2,-2.2l2.6,0.8l3.7,3.8l6.2,1.6l5.6,3.5l4.6,3.3l0,0.9l0.5,3.3l1.6,3.7l0.6,3.6l-0.4,3.9l-2.5,4.4l-1,4.7l-2.3,8.1l-2.9,-4.7l-5.2,-4.6l-4.3,-2.5l-6.4,-0.5l-5.8,0l-4.2,0.3l-2.2,0l-1.4,1l0,8.2l0,6.2l-2.4,3.5l-1.7,0l-2.8,-1.1l-2,-3.2l-1.8,-2.2l-1.8,-0.3l-1.8,0.8l-1.8,1.9l-2,0.6l-4.2,0l-1.9,-1.4l-1.5,-3.5l-3.5,-2.4l-3.8,1.6l-8.6,3.2l-3.3,1.9l-4.7,0.9l-4.4,0l-3,-0.3l-2,1.1l-2.4,3.2l-1.4,3.8l-0.8,3.5l-0.8,1.9l-1.6,0.3l-1.6,-0.6l-2.5,-1.9l-3.4,-1.9l-2.2,-1l-1.2,0l-1.2,0.6l-0.1,-0.4l-2.1,-0.4l-2.8,0.6l-2.2,0.4l-2.1,0l-2.7,0l-1.9,0l-0.9,-3.6l-4.2,-4.1l-2.6,-1.5l-1.6,-1.7l-0.9,-4.8l-0.5,-3.9l-1.2,-2.6l-3.2,-0.2l-3,0l-2.8,-0.4l-1.4,-2.2l-0.3,-3.2l2.2,-4.6l4,-5.2l1,-6.9l1.3,-1.7l0.4,-0.5l4.5,-0.2l4.2,-1.5l3.5,-5.4l3.4,-6.8l0.3,-4.9l0,-3.3l-0.3,-5.6l0,-2.6l1.7,-1.3l3.6,0l4,0.2l2.3,0.3l2.4,2.9l3.1,2.9l3.5,0l1,1l0,2l0.5,5.6l1.3,2.2l4.2,0l3.8,0.4l5.8,3.1l4,5.2l5.9,4.5l3.6,3.5l2.7,2.1l2.9,0l3.1,-0.2l3.5,-1.7l4.5,-1.1l3.2,-1.5l0.7,-1.5l-0.2,-3.3l0.5,-4.1l2.7,-1.3l1,-0.1z" fill="#b51b1b" id="MK701" stroke="#ffff7c"/>
   <path d="m466.9,194.1l1.1,2.9l4.2,2.5l4.3,3.7l4.1,3.5l2.6,0l2.2,0l0.9,1.8l0,4.2l-0.6,2.7l-0.4,3l0,2l0.5,0.5l-0.9,0.3l-1.8,4.3l-1.9,4.2l-1.2,2.3l-0.5,2.1l0,1.8l2.2,2l0.7,4.2l-1.1,2.3l-2.5,0.3l-3.7,0.3l-2.9,0.2l-3.1,-1.5l-2.9,-2.6l-3.2,0l-2.3,3.3l-4.2,2.1l-3.9,2.6l-2.7,0.8l-0.9,1.5l-0.2,-0.5l-0.2,-4l-0.1,-3.8l-1.5,-3l-1.8,-3.3l-2.4,-1.8l-2.8,-1.9l-2.9,-2.2l-2.4,-0.7l-3.4,-2.2l-0.8,-1.5l-0.2,-1.7l2,-3.1l1.5,-2.5l0.8,0.8l1.7,-0.2l1.7,-2.1l2.2,-1.3l3.9,-2.1l3.5,-1l3.2,-0.3l2.3,-2.5l4.2,-5.4l3,-4.3l4.6,-4.9l2,-1.8z" fill="#b51b1b" id="MK807" stroke="#ffff7c"/>
   <path d="m649,280l0.7,-0.7l4.2,-2.2l2.2,0.6l1.1,2l0,2.2l1.2,3.8l3.7,1.6l4.2,-0.2l5.1,0l3.4,-0.4l1.5,-1.7l3.6,4.3l7.7,7.3l9.3,6.8l7.2,1.2l6.7,1.2l4.1,-0.6l4.1,0.2l4.3,4.4l3.4,3.4l4.5,0.6l3,0l1.1,-1.7l3.9,0.4l7,0.8l7.3,0.2l1.6,0l0,5.6l-0.2,3.5l-2.3,0.7l-4.2,3l-3.3,2.9l0,6.3l-0.7,4.8l-1.5,3.8l-2.6,2.7l-1.4,3l-1.8,-2.2l-5,-0.2l-5.2,1.8l-7.6,0.6l-9.4,2l-7.5,0l-4,-5.4l-5.2,-5.4l-7.2,-6.2l-3.1,-0.4l-3.9,-0.8l-4.5,-5.2l-6.4,-5.8l-5.1,-3.2l-5.2,-0.8l-7,-0.2l-4,-0.8l-3,-4.6l-2.4,-7l-1.1,-8.2l0,-6.7l3,-6.2l5.7,-4.9z" fill="#b51b1b" id="MK205" stroke="#ffff7c"/>
   <path d="m689,430l-2.7,0.6l-6.7,0.2l-6.3,-1.8l-5.3,-3.8l-3.7,-2.4l-3.9,-1.7l-2.7,-1.8l-0.2,-6.8l-1,-3.1l-5.7,-1.9l-4.6,-0.2l-5,-0.4l-2.9,0.8l-2.2,-1.8l-1.5,-4.4l-0.5,-5.3l-1.3,-5.4l-1.3,-3.3l-1.3,-2.2l-1.8,-1.7l-2.4,0.4l-1.8,3.3l-1.1,3.1l-1.2,1.5l-1.7,0.8l-1.8,0l-2.9,-3.3l-2.6,-4.6l-1.3,-1.8l-3.5,-1.4l-3.4,-0.2l-3.1,-2.7l-1,-0.8l-1.6,-1.3l-5.1,-2.9l-3.7,-0.4l-6.1,0.5l-1.1,-0.8l-0.3,-0.3l-0.2,-2.6l0,-2.7l-1.6,-1.3l-2.7,-2.2l-2.8,-2.5l-1,-1.9l0.6,-3.4l0.7,-2.7l1.5,-1.9l2,-2.2l1.4,-3.3l2.2,-1.1l1.9,0l1.9,1.1l2.6,2.6l1.2,1.9l2,1.6l1.3,-0.4l0.8,-1.8l0.5,-2.3l1.5,-0.4l1.1,0l2.5,-0.2l0.6,-1.2l0,-1.9l-1.3,-1.4l0,-1.5l1.3,-0.4l1,-0.4l0.6,0.4l3.2,2.4l2,3l2.4,1.1l2,0l1.2,-1.4l-0.8,-3.5l-1.8,-0.8l-1.2,-1.3l0.4,-1.6l0.8,-1.6l1.8,-0.6l0.2,-3.2l-1,-3.5l-1.8,-2.4l-1.6,-3.3l0.2,-1.9l1.2,-1.3l1.6,-0.6l2.8,-0.8l2.1,-0.5l2.2,-3.8l2.8,-3.7l2.8,-3.8l2.6,-4.6l2.1,-1.3l2.2,-1.4l0.4,-3l-0.6,-2.7l-1.6,-2.4l-1,-2.7l-1.4,-1.9l-0.4,-3.5l0.6,-1.9l2.2,-0.8l1.8,-1.3l1,-1.9l0,-1.9l1.9,-0.5l2.5,0l2.8,0.3l2.3,1.2l2,0.6l1.2,0l1.1,-0.6l0.9,-0.3l1.4,0.9l0.9,1.6l0.3,0.6l-5.7,4.9l-3,6.2l0,6.7l1.1,8.2l2.4,7l3,4.6l4,0.8l7,0.2l5.2,0.8l5.1,3.2l6.4,5.8l4.5,5.2l3.9,0.8l3.1,0.4l7.2,6.2l5.2,5.4l4,5.4l7.5,0l9.4,-2l7.6,-0.6l5.2,-1.8l5,0.2l1.8,2.2l-0.7,1.5l-2,3.4l-3.2,4.8l-2.7,5.4l-1,2.7l-1.7,3.4l-2.7,0.4l-3.8,-0.2l-3.9,-1.4l-3.2,-1.1l-1.9,-1.6l-2.8,-1.8l-2.2,0.5l-2.6,2.7l-3.3,3.4l-1.2,2.7l1.3,3.6l2.2,5.8l1.4,1.8l0.6,3.9l0,4.9l0,3.4l1.7,3.4l3.1,2l1.1,0.5l-1.5,2.9l-4.1,3.8l-4.2,5l-4.2,4.5l-3.2,2.7l-3.4,2.7l-1.9,1.8l-0.3,2.2l0.4,0.5z" fill="#b51b1b" id="MK211" stroke="#ffff7c"/>
   <path d="m719.6,168.1l0,-1.5l1,-1.2l2.2,-0.2l5.4,-0.2l4.3,-0.4l2.3,0l2.6,0l1.5,0l1.8,0.3l3.8,0.7l0,1.3l1.5,4.8l2.4,1.3l1.7,-1.6l1.4,-2.7l2.1,-1.1l2.1,1.4l2.3,3.4l0.3,5.2l0,9.7l1.6,4.1l3.5,2l5.2,2.8l1.4,1.6l1,7.2l-0.2,3.6l1.4,2.3l2.5,3.2l0.8,2.7l2.4,2.9l0.2,4.4l-0.2,4.9l0.7,3.7l1.7,2.9l0,3.7l-1.7,1.1l-3.7,2.5l-2.2,0l-2,-0.3l-1.7,-1.3l-1.6,-2.5l-2.2,-1.8l-1.7,-0.9l-3,0l-2.7,0.2l-1.1,1.8l-1,6.3l-0.6,6.6l-1.7,4.8l-0.2,4l0.5,11.6l-2.5,2.9l-0.1,1l-1.2,0l-3.1,1l-2.8,3.7l-1.3,2.6l-1.6,0.8l-1.9,-0.6l-0.5,-1.8l-1.4,-1.2l-2,0l-1.6,1.2l-1.3,2l-3.4,2.9l-3.3,0.2l-2.6,0l-0.4,0l-1.2,-0.7l-1.9,-2.6l-1.6,0l-2.1,-1l-1.1,-4.9l-0.6,-2.2l-0.8,-1.7l-1.4,-2.8l-0.3,-7.9l0,-3.3l0.9,-2.2l1.1,-0.8l0.3,-1.3l-0.3,-2.2l-0.8,-1.2l-2.5,0l-4,0.2l-7.3,0.2l-5.4,-3.7l-4.5,-5.7l-1.5,-4.2l-0.1,-0.3l0,-0.5l1.7,-2.1l3.5,-2.6l4.4,-4.5l5.1,-4.1l1.6,-3.8l2.2,-3.7l2.7,-1.8l2.7,-1.6l1.6,-0.4l1.2,-5.5l1.3,-4.5l0.5,-2l2.3,-8.1l1,-4.7l2.5,-4.4l0.4,-3.9l-0.6,-3.6l-1.6,-3.7l-0.5,-3.3l0,-0.9z" fill="#b51b1b" id="MK206" stroke="#ffff7c"/>
   <path d="m735.3,312.1l-0.1,0l-1.5,-3.4l-2.2,-3.9l-3.9,-5.1l-3.5,-3.3l-0.9,-4l-0.1,-6.3l2.6,0l3.3,-0.2l3.4,-2.9l1.3,-2l1.6,-1.2l2,0l1.4,1.2l0.5,1.8l1.9,0.6l1.6,-0.8l1.3,-2.6l2.8,-3.7l3.1,-1l1.2,0l-0.1,0.6l1.2,2.3l1.9,2l0.6,2.7l0.9,6.1l0.3,5.7l0,4l0,3.9l-0.5,3.8l-0.3,4.8l0,2.3l-1.6,0l-7.3,-0.2l-7,-0.8l-3.9,-0.4z" fill="#b51b1b" id="MK204" stroke="#ffff7c"/>
   <path d="m516.5,402.4l-3.5,-0.4l-8.1,-2.1l-3.1,-3.5l-0.6,-3.9l-0.1,-5l-0.2,-3.1l-1.2,-1.9l-1.8,0.4l-1,1.3l-2.2,2l-1.1,0.9l-1.8,0.8l-1.9,-0.2l-1.9,-2.9l-0.6,-2.7l0.1,-2.7l-0.9,-4l-2.9,-4.5l-1.3,-7.9l-2.1,-5.2l-3.8,-1.9l-3.9,-0.2l-4.3,-0.9l-2.9,-1.2l-2.7,-1.5l-2,-0.4l-1.9,0l-1.2,1.3l-1.5,1l-2.1,0l-1.8,-1.4l-2.5,-5.4l-3.1,-6.3l-2.2,-3.1l0.3,-1.1l0.1,-0.4l6.4,-0.6l5.6,-2.1l2.2,-1.4l1.8,-3.6l3.2,-5.2l2.1,-3.1l0,-5.8l0,-2.7l-1.7,-1.1l-1.4,-2l0,-2.3l0,-3.8l0,-3.1l1.7,-0.6l0.1,1.2l3.6,1.6l3.8,0.6l2.7,0.2l1.7,-1.6l1.4,-0.7l0.9,0.9l0.2,3.5l-0.8,1.7l0.3,1l2,0l1.3,-2.5l2,-1.8l1.5,-1.9l0.2,-1.7l2.5,0l2.1,2.7l1.7,2.9l4.2,1.5l1.9,-0.6l0.9,-1.9l1.1,-4.8l1.2,-5l1.7,-4.8l0.8,-4.5l0.5,-4l0,-4.6l-0.5,-3.5l-0.4,-4l0.3,-1.6l2,-1.1l4.5,0.2l4.8,-1.8l5.2,-4l3,-2.3l4,-2.9l-0.1,0.9l0,5.2l2.3,9.2l1.6,5.6l4.6,5.9l4.6,6l3.2,3.7l0.1,2.3l-1.3,2l-1.8,1.9l-3.3,3.9l-2.2,1.9l-2.1,2.3l-1.1,1.9l0.6,1.9l1.2,1.6l2.3,3.1l1.8,1.9l1.8,2.7l0,3.4l-0.7,2.4l-2.2,4.6l-1.6,3.3l-0.4,1.3l-0.5,2.7l1.1,1.6l1.8,0l2.2,0l2.8,1.1l1.6,2.7l2.6,5.4l1.7,2.5l0,2.3l0,3.9l-1.4,6.9l-3.1,3.9l-5.9,6l-2.3,4.8l-1.7,4.6l-1.9,4.5l-3.4,5.4l-3.9,0.6l-2.9,0l-2.5,0.3l-1.1,1.6l-0.5,2.9l-0.6,4.5z" fill="#b51b1b" id="MK101" stroke="#ffff7c"/>
   <path d="m713.7,486.3l-1.1,2.7l-0.6,3.2l-0.2,4.7l0.6,3.7l1.9,5.7l1.7,2l-0.3,1.2l-0.1,2.6l0.3,2.3l1.8,2.2l1,1.6l1.5,4.8l0.3,3.6l-0.2,4l-0.4,2l-1.8,0.6l-3,0l-4.6,-0.4l-4.2,0.2l-3,0.2l-1.8,1.6l-2.6,3.2l-2,2.7l-0.2,1.7l-2.2,0.8l-10,7l-8.9,5l-5.8,0.9l-6.4,-0.9l-5.8,-3.7l-5.1,-3.5l-1.8,-5l-1.6,-2.7l-2.2,-0.3l-2,-1.1l-1.4,-1.6l-1.2,-1.3l-1.4,-0.5l-1.8,-1.6l-3.5,-3.3l-5.9,-5.8l-3.5,-2.9l0.6,0l2.1,-0.2l4.8,0.5l5.4,0l3.4,-0.6l1.9,-0.6l1,-1.8l0.6,-3l0.8,-2.4l0.5,-2.7l0,-2l-1,-2.6l-2.3,-2.9l-2.2,-3.1l-0.9,-2.1l0.4,-1.5l1.2,-1.7l1.9,-0.2l2.1,-1.7l1.7,-1.4l1.3,-2.9l1.5,-3.4l1.3,-5.7l1.8,-6.3l1.6,-2.8l3.6,-2.7l3.8,-4.7l2.5,-1.7l3.2,0l2.1,0.7l2,2.1l1.7,1.5l3.6,2.1l3.1,1.5l2.4,1.4l3.2,1l1.8,0l1.3,-1.2l1.3,-2l0.9,-2.6l1,-2.1l1.6,-1.4l2.7,-1.3l3.8,-3.6l1.8,-2.1l1,2.4l3.2,0.4l4.2,2.3l2.9,1.6l1.7,3.6l-0.7,3.3l-2,2.1l-1,0.9l-0.7,2.9l0.2,3.8l0.8,5.6l1,1.7z" fill="#b51b1b" id="MK103" stroke="#ffff7c"/>
   <path d="m811.5,221.5l0.3,3.1l0,7.5l0.5,6.3l0.1,5.2l0,4.1l1.5,1.4l3.9,0.9l7.1,2.2l6.7,3.7l7,3.6l4.3,1.1l3.2,0.7l2.2,0l1.2,0.2l0,2.5l-1.5,1.4l-1.4,3.1l-3,5.5l-1,6.8l-1.5,7.6l-2.2,4.3l-2.5,3.4l-0.7,3.4l-0.2,4.8l0.3,0.7l-0.8,0.2l-0.7,3.8l1.2,2.5l0.5,5l-0.5,7.9l-1.3,5.6l-2.4,5.7l-3.4,4l-4.9,0l-3.8,0.7l-2.9,2.5l0,0.1l-0.3,0l-2.7,-0.5l-2.9,0l-4.4,-1.8l-3.8,-3.1l-2.2,-2.5l-2.6,-2.3l-2.8,-1.3l-3.1,-1.4l-2,-1.3l-1.1,-2.5l-0.9,-2.3l-1.2,-1.1l-1.2,0l-1.3,0.2l-1,2.1l-0.7,2.4l-2,2.1l-4.9,1.1l-3.9,0l-4,0.2l-3,-1.3l-1.5,-1.4l-2.4,-2.9l-2.6,-2.1l-3.1,-0.8l-0.3,0.1l0.2,-3.5l0,-5.6l0,-2.3l0.3,-4.8l0.5,-3.8l0,-3.9l0,-4l-0.3,-5.7l-0.9,-6.1l-0.6,-2.7l-1.9,-2l-1.2,-2.3l0.1,-0.6l0.1,-1l2.5,-2.9l-0.5,-11.6l0.2,-4l1.7,-4.8l0.6,-6.6l1,-6.3l1.1,-1.8l2.7,-0.2l3,0l1.7,0.9l2.2,1.8l1.6,2.5l1.7,1.3l2,0.3l2.2,0l3.7,-2.5l1.7,-1.1l0,0.2l1.7,0.9l3.2,1.3l2.6,0l4,-2.7l2.5,-5.2l2.2,-4.8l0.7,-4.3l0.8,-2.9l2.2,-2.1l2.7,-0.4l5.4,0.7l3.2,1.5z" fill="#b51b1b" id="MK202" stroke="#ffff7c"/>
   <path d="m900.9,442.6l0.3,2.2l0.1,5.7l-1,3.8l-2.2,1.8l-2,2.7l-1.8,3.1l-3,3.8l-3.9,3.4l-1.9,1.4l-3,2.2l-1.7,2.3l0.2,4l0,4.3l0,5.4l-0.2,3.1l-0.7,2.5l-1.3,1.3l-1.4,0.9l-1.7,1.4l-0.3,1.1l0,0.2l-1.5,0l-2.9,0.2l-1.6,0.9l-2.1,1.2l-1.6,0.4l-3.1,-0.4l-2.8,-1.6l-2.2,-2l-1.1,-1.6l-0.5,-3.8l-0.6,-2.3l-1.4,-1.8l-2.2,0.3l-3,0.2l-1.2,1.3l-1,0.7l-1.9,0l-1.5,-1.6l-2,-0.6l-1.3,-0.5l0,-2.7l1.1,-2.5l1.6,-3.3l0.1,-2.5l-0.6,-2.9l-1.2,-3.6l-0.8,-2.7l-2.8,-3.2l-1.6,-1.3l-0.2,-0.2l0.3,-1.4l2.9,-1.8l2.2,-0.4l2,-0.5l2,-0.9l2.4,-2.9l3.2,-2.5l2.3,-4.5l1.4,-2.7l0.7,-2.4l0.5,-6.6l0.8,-4.5l0,-4.7l-0.7,-6.5l-0.7,-3.2l3.7,0.5l2.5,3.6l1,4.2l3,3.7l5.3,3.6l4.2,0.9l6.2,0.9l5.2,0.2l6.9,0.4l3.1,2.3l3.3,4.5l1.7,0z" fill="#b51b1b" id="MK402" stroke="#ffff7c"/>
   <path d="m816.8,343l-0.1,3.5l0.2,4.9l1.3,6.2l2.6,2.3l2.7,1.4l1.7,1.9l-0.2,2.6l-1.9,2.5l-3,5.6l-2.1,2.9l-0.2,3.1l0.6,3.9l1.4,3.3l-1,1.2l-3.9,0.7l-4.3,0l-2.4,0.4l-1.3,1.4l-2.7,5.2l-1.7,2.9l-1,3.2l0.1,2.7l2.1,3.3l2.8,4.6l2.5,1.5l0.7,3.2l0.2,3.4l1.3,2.7l0.5,3.1l0,3.6l-0.3,4.5l-2,3.2l-1.5,2l-1.4,1.1l-2,-0.2l-3.5,-3.6l-3.2,-3.2l-3.7,-3.6l-5.6,-3.3l-2,0l-1.5,0.8l-1.9,4.5l-3.4,2.5l-2.5,0.7l-2,0l-1.4,1.1l0,1.8l0.9,1.2l0.8,2l0.9,2l0,2.5l-1.1,1l-2.3,-1l-6.6,-1.8l-4.5,0l-3.4,-0.9l-1.8,-1.6l0.1,-2.5l1.9,-0.9l1.7,-1.3l0.8,-2.3l0,-2.7l-1.5,-2l-3.3,-3.8l-3.2,-5.4l-4.8,-5.4l-3.1,-2.5l-5,-0.4l-7,-0.5l-4.2,-0.2l-2.7,-0.5l-3,-2.5l-2.8,-2.7l-3.3,-0.9l-2.3,0l-3.6,-1.5l-1.1,-0.5l-3.1,-2l-1.7,-3.4l0,-3.4l0,-4.9l-0.6,-3.9l-1.4,-1.8l-2.2,-5.8l-1.3,-3.6l1.2,-2.7l3.3,-3.4l2.6,-2.7l2.2,-0.5l2.8,1.8l1.9,1.6l3.2,1.1l3.9,1.4l3.8,0.2l2.7,-0.4l1.7,-3.4l1,-2.7l2.7,-5.4l3.2,-4.8l2,-3.4l0.7,-1.5l1.4,-3l2.6,-2.7l1.5,-3.8l0.7,-4.8l0,-6.3l3.3,-2.9l4.2,-3l2.3,-0.7l0.3,-0.1l3.1,0.8l2.6,2.1l2.4,2.9l1.5,1.4l3,1.3l4,-0.2l3.9,0l4.9,-1.1l2,-2.1l0.7,-2.4l1,-2.1l1.3,-0.2l1.2,0l1.2,1.1l0.9,2.3l1.1,2.5l2,1.3l3.1,1.4l2.8,1.3l2.6,2.3l2.2,2.5l3.8,3.1l4.4,1.8l2.9,0l2.7,0.5l0.3,0z" fill="#b51b1b" id="MK409" stroke="#ffff7c"/>
   <path d="m835.7,463.5l-2.2,1.1l-4.3,3.6l-3.6,0.7l-2.3,0.9l-3.2,1.3l-6.6,-0.2l-3.7,0l-2.2,-3.1l-3.5,-4.3l-1.5,-2l-4.3,-2.1l-2.8,-2.2l-2.4,0l-4,-2.3l-3.5,0.5l-1.2,1.8l-1,2.7l-2.1,2.7l-2.3,2.9l-1.4,1.4l-0.5,-0.5l-0.5,-0.4l-0.5,-4.3l-1.2,-3.8l-0.2,-3.9l0,-3.5l0.2,-3l0.4,-0.3l1.1,-1l0,-2.5l-0.9,-2l-0.8,-2l-0.9,-1.2l0,-1.8l1.4,-1.1l2,0l2.5,-0.7l3.4,-2.5l1.9,-4.5l1.5,-0.8l2,0l5.6,3.3l3.7,3.6l3.2,3.2l3.5,3.6l2,0.2l1.4,-1.1l1.5,-2l2,-3.2l0.3,-4.5l0,-3.6l-0.5,-3.1l-1.3,-2.7l-0.2,-3.4l-0.7,-3.2l-2.5,-1.5l-2.8,-4.6l-2.1,-3.3l-0.1,-2.7l1,-3.2l1.7,-2.9l2.7,-5.2l1.3,-1.4l2.4,-0.4l4.3,0l3.9,-0.7l1,-1.2l0.3,0.9l-0.4,4l1.1,3.4l1,0l1.7,-0.9l1.9,-4.5l1.7,-1.4l2.4,0.6l5.1,5.4l4.2,1.2l1.7,1.5l1.1,3l0,3.6l-0.1,3.6l-0.9,2.2l-2.2,0.7l-2.2,1.1l-0.1,1.8l0.3,2.3l2.4,0l5.4,-0.3l9.2,2.3l1.4,0.2l0.7,3.2l0.7,6.5l0,4.7l-0.8,4.5l-0.5,6.6l-0.7,2.4l-1.4,2.7l-2.3,4.5l-3.2,2.5l-2.4,2.9l-2,0.9l-2,0.5l-2.2,0.4l-2.9,1.8l-0.3,1.4l0.2,0.2z" fill="#b51b1b" id="MK404" stroke="#ffff7c"/>
   <path d="m754.8,476.2l-1.8,-0.6l-4.8,-0.6l-6.4,0.2l-9.1,2.2l-6.5,1.6l-8.6,3.4l-1.4,2.4l-0.4,2.3l-1.6,0l-0.5,-0.8l-1,-1.7l-0.8,-5.6l-0.2,-3.8l0.7,-2.9l1,-0.9l2,-2.1l0.7,-3.3l-1.7,-3.6l-2.9,-1.6l-4.2,-2.3l-3.2,-0.4l-1,-2.4l-0.5,-1.2l-0.2,-4.7l-1.7,-3.8l-2.5,-3.9l-3,-4.9l-3.9,-4.3l-2.3,-2.9l-0.4,-0.5l0.3,-2.2l1.9,-1.8l3.4,-2.7l3.2,-2.7l4.2,-4.5l4.2,-5l4.1,-3.8l1.5,-2.9l3.6,1.5l2.3,0l3.3,0.9l2.8,2.7l3,2.5l2.7,0.5l4.2,0.2l7,0.5l5,0.4l3.1,2.5l4.8,5.4l3.2,5.4l3.3,3.8l1.5,2l0,2.7l-0.8,2.3l-1.7,1.3l-1.9,0.9l-0.1,2.5l1.8,1.6l3.4,0.9l4.5,0l6.6,1.8l2.3,1l-0.4,0.3l-0.2,3l0,3.5l0.2,3.9l1.2,3.8l0.5,4.3l0.5,0.4l-0.4,3.2l-1.7,1.5l-4.2,-0.6l-1.8,-1.4l-2.6,0l-4.2,1.4l-5,2.4l-2.4,2.5l0,0.8z" fill="#b51b1b" id="MK407" stroke="#ffff7c"/>
   <path d="m252.9,206.6l0.7,3l-2.2,0.5l-1.9,2.6l-1.9,2.9l0,1.2l1.4,1.6l3.1,1l0.7,2.2l1.7,2.6l3.8,1.2l1.2,1l-0.3,3.5l-1.4,0.6l-2.6,0.4l-3.1,1.2l-2.6,3.5l0,0.1l-3.6,-0.7l-2.8,-0.3l-4.5,-3.2l-2.8,-2.2l-2.2,-0.4l-2.1,1.3l-1.9,3.8l-0.7,2l-1.4,-0.2l-1.5,-0.2l-4.7,-5.7l-3.8,-4.5l-3.3,-1.9l-10.9,-2.2l-9.5,-2.6l-5.4,0.4l-4.1,2.5l-3.5,3.5l-4.3,3.2l-6.1,2.2l-5.5,2.9l-4,4.1l-3.5,1.7l-0.5,0.4l-0.5,0.2l-2.3,0.6l-3.2,-13.3l0.5,-10.8l4.3,-23.6l3.6,-10.2l6.9,-8.5l9.1,-5.2l33.2,-11.3l9.5,-3.3l-2.9,5.6l1.9,0.9l4.5,2.8l3.4,2l3.1,3.5l2.8,5.7l1.9,5.1l1.2,3.5l3,1l2.2,0l3.1,1.3l2.6,3.5l1.4,2.9l-1,3.5l0,2.8l0,3.5l1,2l3.1,1.9l2.8,0.6l0.8,0.3z" fill="#b51b1b" id="MK609" stroke="#ffff7c"/>
  </g>
  <g id="points">
   <circle class="40.9254410823674|20.57242859470441" cx="90.9" cy="721.3" id="0"/>
   <circle class="41.53381736054885|21.855140996727467" cx="545.5" cy="434.6" id="1"/>
   <circle class="42.29428770827567|22.881310918345914" cx="909.1" cy="72.5" id="2"/>
  </g>
  <g id="label_points">
   <circle class="Struga" cx="117.1" cy="534.8" id="svg_1"/>
   <circle class="Centar upa" cx="94.4" cy="470.2" id="svg_2"/>
   <circle class="Debar" cx="79.5" cy="430.2" id="svg_3"/>
   <circle class="Mavrovo and Rostusa" cx="128.8" cy="381.4" id="svg_4"/>
   <circle class="Gostivar" cx="227.3" cy="338.8" id="svg_5"/>
   <circle class="Vevani" cx="85.3" cy="576" id="svg_6"/>
   <circle class="Ohrid" cx="171.8" cy="648.4" id="svg_7"/>
   <circle class="Debarca" cx="181.4" cy="528.4" id="svg_8"/>
   <circle class="Resen" cx="238.9" cy="689.8" id="svg_9"/>
   <circle class="Novo Selo" cx="905" cy="491.6" id="svg_10"/>
   <circle class="Dojran" cx="842" cy="572.6" id="svg_11"/>
   <circle class="Valandovo" cx="760" cy="511.2" id="svg_12"/>
   <circle class="Strumitsa" cx="816.4" cy="501.7" id="svg_13"/>
   <circle class="Bogdanci" cx="803.6" cy="602.7" id="svg_14"/>
   <circle class="Gevgelija" cx="734.9" cy="579" id="svg_15"/>
   <circle class="Kavadartsi" cx="602.7" cy="564.7" id="svg_16"/>
   <circle class="Novaci" cx="470.6" cy="674.2" id="svg_17"/>
   <circle class="Prilep" cx="478.7" cy="552.6" id="svg_18"/>
   <circle class="Bitola" cx="336.7" cy="663.1" id="svg_19"/>
   <circle class="Lipkovo" cx="448.2" cy="134.7" id="svg_20"/>
   <circle class="uer Sandevo" cx="382.8" cy="141.1" id="svg_21"/>
   <circle class="Gjore Petrov" cx="357.3" cy="191.5" id="svg_22"/>
   <circle class="Saraj" cx="332.1" cy="220.9" id="svg_23"/>
   <circle class="Jegunovce" cx="292.4" cy="149.6" id="svg_24"/>
   <circle class="Tearce" cx="257.7" cy="170.4" id="svg_25"/>
   <circle class="Bogovinje" cx="199.4" cy="240.7" id="svg_26"/>
   <circle class="Vrapcite" cx="186.2" cy="281.1" id="svg_27"/>
   <circle class="Kriva Palanka" cx="705.9" cy="110.5" id="svg_28"/>
   <circle class="Rankovce" cx="638.4" cy="116" id="svg_29"/>
   <circle class="Staro Nagoriane" cx="561.3" cy="111.4" id="svg_30"/>
   <circle class="Kumanovo" cx="506.4" cy="189.4" id="svg_31"/>
   <circle class="Delevo" cx="870.9" cy="238" id="svg_32"/>
   <circle class="Makedonska Kamenica" cx="789.9" cy="188.6" id="svg_33"/>
   <circle class="Berovo" cx="883.4" cy="386.8" id="svg_34"/>
   <circle class="Pehevo" cx="908.2" cy="318" id="svg_35"/>
   <circle class="elino" cx="287.8" cy="248.4" id="svg_36"/>
   <circle class="Brvenica" cx="248.8" cy="268.4" id="svg_37"/>
   <circle class="Brod" cx="322.6" cy="384.6" id="svg_38"/>
   <circle class="Kievo" cx="218.4" cy="438.1" id="svg_39"/>
   <circle class="Sopite" cx="346.5" cy="290.1" id="svg_40"/>
   <circle class="Karpo" cx="379.4" cy="222.7" id="svg_41"/>
   <circle class="uto Orizari" cx="386.2" cy="195.9" id="svg_42"/>
   <circle class="Butel" cx="411" cy="162.1" id="svg_43"/>
   <circle class="air" cx="397.1" cy="215.8" id="svg_44"/>
   <circle class="Centar" cx="392" cy="225.2" id="svg_45"/>
   <circle class="Dolneni" cx="385.2" cy="475" id="svg_46"/>
   <circle class="Krivogatani" cx="373.2" cy="542.8" id="svg_47"/>
   <circle class="Mogila" cx="389.7" cy="618.6" id="svg_48"/>
   <circle class="aka" cx="449.9" cy="408.5" id="svg_49"/>
   <circle class="Rosoman" cx="559.9" cy="456.8" id="svg_50"/>
   <circle class="Negotino" cx="638.5" cy="444.3" id="svg_51"/>
   <circle class="Gazi Baba" cx="421.5" cy="202.9" id="svg_52"/>
   <circle class="Kruevo" cx="334.9" cy="517.2" id="svg_53"/>
   <circle class="Demir Hisar" cx="290.4" cy="562.9" id="svg_54"/>
   <circle class="Aerodrom" cx="413.8" cy="234.1" id="svg_55"/>
   <circle class="Studeniani" cx="387.4" cy="309.8" id="svg_56"/>
   <circle class="Kisela Voda" cx="421" cy="251.4" id="svg_57"/>
   <circle class="Probitip" cx="656.2" cy="234.4" id="svg_58"/>
   <circle class="einovo-Obleevo" cx="694.5" cy="275.1" id="svg_59"/>
   <circle class="Arainovo" cx="446.2" cy="204.2" id="svg_60"/>
   <circle class="Zelenikovo" cx="442" cy="304.7" id="svg_61"/>
   <circle class="Plasnica" cx="285.3" cy="477.8" id="svg_62"/>
   <circle class="Skopje" cx="485.9" cy="268.2" id="svg_63"/>
   <circle class="Lozovo" cx="565.5" cy="330.5" id="svg_64"/>
   <circle class="Sveti Nikole" cx="585.7" cy="269.8" id="svg_65"/>
   <circle class="Gradsko" cx="555.1" cy="407.3" id="svg_66"/>
   <circle class="Kratovo" cx="611.9" cy="182.4" id="svg_67"/>
   <circle class="Ilinden" cx="464.9" cy="221.9" id="svg_68"/>
   <circle class="Karbinci" cx="709.6" cy="328.7" id="svg_69"/>
   <circle class="tip" cx="656.1" cy="363.9" id="svg_70"/>
   <circle class="Koani" cx="735.4" cy="225.1" id="svg_71"/>
   <circle class="Zrnovci" cx="742" cy="297.9" id="svg_72"/>
   <circle class="Veles" cx="506.6" cy="342.8" id="svg_73"/>
   <circle class="Demir Kapija" cx="678.3" cy="510.9" id="svg_74"/>
   <circle class="Vinica" cx="797.9" cy="285.1" id="svg_75"/>
   <circle class="Bosilovo" cx="867.7" cy="460.5" id="svg_76"/>
   <circle class="Radovi" cx="769.3" cy="380.5" id="svg_77"/>
   <circle class="Vasilevo" cx="829.8" cy="438.6" id="svg_78"/>
   <circle class="Kone" cx="732.8" cy="444.8" id="svg_79"/>
   <circle class="Tetovo" cx="207.6" cy="190" id="svg_80"/>
  </g>
 </g>

</svg>